<?xml version="1.0" standalone="no"?>
<!DOCTYPE svg PUBLIC "-//W3C//DTD SVG 20010904//EN"
 "http://www.w3.org/TR/2001/REC-SVG-20010904/DTD/svg10.dtd">
<svg version="1.0" xmlns="http://www.w3.org/2000/svg"
 width="62.000000pt" height="54.000000pt" viewBox="0 0 62.000000 54.000000"
 preserveAspectRatio="xMidYMid meet">
<metadata>
Created by potrace 1.16, written by Peter Selinger 2001-2019
</metadata>
<g transform="translate(0.000000,54.000000) scale(0.100000,-0.100000)"
fill="#000000" stroke="none">
<path d="M36 532 c-3 -5 1 -9 9 -9 8 0 12 4 9 9 -3 4 -7 8 -9 8 -2 0 -6 -4 -9
-8z"/>
<path d="M220 418 c-11 -10 -27 -18 -36 -18 -11 0 -14 -5 -10 -16 5 -14 4 -15
-9 -4 -15 12 -21 4 -16 -24 1 -5 -5 -6 -14 -2 -11 4 -15 2 -13 -6 2 -6 -4 -20
-14 -30 -24 -24 -24 -45 -1 -27 17 13 17 12 0 -13 -10 -16 -14 -28 -9 -28 5 0
9 -6 10 -12 2 -27 8 -44 22 -63 17 -23 69 -65 80 -65 16 0 48 38 61 73 11 31
11 42 0 58 -7 12 -8 18 -3 15 6 -3 -3 22 -20 56 -25 51 -32 59 -38 44 -6 -19
-7 -19 -14 -1 -8 23 9 35 49 35 60 -1 83 -40 79 -134 -3 -68 23 -132 59 -145
28 -11 40 -4 33 18 -6 15 -5 15 7 -1 12 -15 16 -12 39 26 48 80 70 212 43 255
-18 30 -73 -5 -57 -36 18 -36 -7 -177 -33 -187 -8 -3 -18 1 -23 7 -8 10 -21
101 -23 160 0 9 -4 17 -10 17 -5 0 -9 5 -9 11 0 16 -41 50 -51 43 -5 -3 -9 0
-9 5 0 17 -49 9 -70 -11z m-10 -170 c11 -30 11 -41 2 -50 -9 -9 -19 -5 -42 17
-23 22 -30 38 -30 67 0 21 6 47 13 58 11 19 13 18 28 -17 9 -21 22 -55 29 -75z"/>
</g>
</svg>
