<?xml version="1.0" standalone="no"?>
<!DOCTYPE svg PUBLIC "-//W3C//DTD SVG 20010904//EN"
 "http://www.w3.org/TR/2001/REC-SVG-20010904/DTD/svg10.dtd">
<svg version="1.0" xmlns="http://www.w3.org/2000/svg"
 width="62.000000pt" height="51.000000pt" viewBox="0 0 62.000000 51.000000"
 preserveAspectRatio="xMidYMid meet">
<metadata>
Created by potrace 1.16, written by Peter Selinger 2001-2019
</metadata>
<g transform="translate(0.000000,51.000000) scale(0.100000,-0.100000)"
fill="#000000" stroke="none">
<path d="M107 398 c-2 -7 -1 -26 3 -43 8 -36 6 -134 -4 -191 -9 -50 9 -70 51
-58 16 4 32 6 36 6 4 -1 21 5 37 13 16 9 32 15 35 15 3 0 6 0 8 1 21 7 57 2
57 -8 0 -7 -5 -13 -12 -13 -6 0 -9 -2 -6 -5 8 -9 58 21 50 30 -4 4 2 3 13 -2
22 -12 48 -6 39 8 -3 5 -14 9 -25 9 -10 0 -19 5 -19 10 0 7 -10 5 -25 -3 -21
-10 -41 -11 -98 -2 l-72 11 -1 74 c0 41 -4 94 -8 118 -7 35 -12 42 -31 42 -13
0 -25 -6 -28 -12z"/>
<path d="M383 378 c-1 -12 3 -29 10 -37 10 -12 9 -13 -2 -6 -11 6 -13 4 -8 -9
4 -10 7 -20 7 -22 0 -2 5 -4 11 -4 5 0 7 5 3 12 -5 7 -3 8 5 4 7 -5 10 -10 7
-13 -3 -3 -1 -14 5 -24 7 -13 6 -19 -2 -19 -7 0 -8 -7 -4 -17 12 -27 14 -97 3
-110 -6 -8 -2 -11 16 -9 15 2 26 -1 26 -5 0 -23 44 -7 62 21 1 3 -12 20 -29
38 -18 17 -33 35 -34 39 -2 27 -9 47 -17 52 -5 3 -10 30 -11 60 -3 63 -6 71
-29 71 -11 0 -18 -8 -19 -22z m64 -143 c0 -8 -4 -12 -9 -9 -4 3 -8 9 -8 15 0
5 4 9 8 9 5 0 9 -7 9 -15z"/>
<path d="M244 118 c-2 -4 8 -5 23 -2 37 7 43 15 9 12 -15 -1 -30 -6 -32 -10z"/>
</g>
</svg>
