<?xml version="1.0" standalone="no"?>
<!DOCTYPE svg PUBLIC "-//W3C//DTD SVG 20010904//EN"
 "http://www.w3.org/TR/2001/REC-SVG-20010904/DTD/svg10.dtd">
<svg version="1.0" xmlns="http://www.w3.org/2000/svg"
 width="82.000000pt" height="87.000000pt" viewBox="0 0 82.000000 87.000000"
 preserveAspectRatio="xMidYMid meet">
<metadata>
Created by potrace 1.16, written by Peter Selinger 2001-2019
</metadata>
<g transform="translate(0.000000,87.000000) scale(0.100000,-0.100000)"
fill="#000000" stroke="none">
<path d="M219 723 c-23 -27 -36 -39 -28 -28 11 16 9 16 -13 -3 -14 -13 -31
-42 -36 -64 -13 -51 -8 -171 7 -176 6 -2 9 -7 7 -11 -3 -4 -1 -13 4 -21 17
-28 31 6 34 86 5 127 39 181 106 170 50 -8 70 -37 71 -105 1 -83 6 -121 18
-135 15 -18 3 -26 -38 -26 -85 0 -211 -60 -211 -100 0 -5 -4 -10 -9 -10 -9 0
-30 -70 -33 -111 -3 -36 22 -89 41 -89 20 1 61 34 61 51 0 6 -7 17 -15 23 -25
18 -1 79 44 115 32 26 104 49 127 41 4 -1 11 4 15 12 5 7 9 8 9 2 0 -8 60 -12
80 -4 3 1 28 1 55 0 40 -1 55 3 69 19 11 12 24 21 29 21 20 0 65 59 85 113 22
59 22 80 -2 128 -8 16 -10 27 -5 24 14 -10 11 12 -6 28 -8 8 -11 17 -8 21 6 5
-20 10 -39 7 -5 0 -7 4 -5 11 4 21 -46 39 -99 35 -38 -2 -58 -10 -80 -30 -16
-15 -40 -27 -54 -27 -20 0 -22 2 -10 10 13 8 12 10 -2 10 -10 0 -18 5 -18 11
0 5 -4 7 -10 4 -5 -3 -7 0 -4 8 3 8 -6 18 -21 25 -48 22 -71 15 -116 -35z
m397 -84 c79 -75 -5 -212 -135 -218 -36 -2 -51 1 -46 8 3 6 8 42 11 79 3 37
10 82 15 100 19 59 106 77 155 31z m-231 -269 c3 -5 1 -10 -4 -10 -6 0 -11 5
-11 10 0 6 2 10 4 10 3 0 8 -4 11 -10z m45 -6 c0 -8 -19 -13 -24 -6 -3 5 1 9
9 9 8 0 15 -2 15 -3z"/>
<path d="M175 111 c-3 -5 -2 -12 3 -15 5 -3 9 1 9 9 0 17 -3 19 -12 6z"/>
</g>
</svg>
