<?xml version="1.0" standalone="no"?>
<!DOCTYPE svg PUBLIC "-//W3C//DTD SVG 20010904//EN"
 "http://www.w3.org/TR/2001/REC-SVG-20010904/DTD/svg10.dtd">
<svg version="1.0" xmlns="http://www.w3.org/2000/svg"
 width="108.000000pt" height="70.000000pt" viewBox="0 0 108.000000 70.000000"
 preserveAspectRatio="xMidYMid meet">
<metadata>
Created by potrace 1.16, written by Peter Selinger 2001-2019
</metadata>
<g transform="translate(0.000000,70.000000) scale(0.100000,-0.100000)"
fill="#000000" stroke="none">
<path d="M295 601 c-26 -8 -65 -42 -59 -53 3 -4 -1 -5 -9 -2 -12 4 -25 -14
-46 -61 -2 -5 8 2 23 17 15 15 34 24 42 21 8 -3 14 0 14 6 0 6 17 11 39 11 49
0 87 -29 101 -78 14 -53 12 -158 -4 -222 -14 -52 -8 -90 12 -90 17 0 52 42 53
63 0 12 3 35 5 50 3 16 1 26 -4 23 -5 -3 -9 1 -9 9 0 8 4 12 9 9 11 -7 8 107
-3 121 -4 6 -9 24 -11 40 -7 52 -53 114 -85 115 -7 0 -13 4 -13 9 0 12 -31 19
-55 12z"/>
<path d="M151 463 c-7 -8 -11 -16 -8 -19 2 -2 10 2 17 11 17 20 9 27 -9 8z"/>
<path d="M640 460 c-7 -4 -12 -20 -12 -36 0 -16 1 -75 1 -131 1 -119 5 -133
37 -133 35 0 45 30 41 126 -3 83 -3 86 20 95 40 15 73 11 74 -8 1 -10 0 -62
-1 -115 l-2 -97 28 2 c22 2 31 9 39 32 5 17 14 33 18 36 5 3 7 42 4 86 l-4 80
32 12 c18 6 41 23 50 38 l17 26 -108 -6 c-60 -3 -124 -9 -141 -12 -18 -3 -33
-2 -33 3 0 11 -43 13 -60 2z"/>
<path d="M125 407 c3 -16 2 -34 -4 -40 -5 -7 -10 -16 -11 -22 -1 -5 -9 -9 -18
-8 -10 1 -12 0 -4 -3 19 -9 36 -45 20 -42 -7 2 -11 -4 -9 -12 2 -8 4 -20 4
-27 0 -7 4 -10 9 -7 7 5 10 -3 7 -23 0 -3 6 -10 15 -15 8 -5 13 -15 10 -23 -4
-9 3 -16 21 -21 14 -3 24 -11 22 -17 -5 -16 25 -47 46 -47 22 0 91 65 83 79
-3 5 -2 11 3 13 10 3 14 33 12 85 -1 41 -49 98 -70 84 -12 -8 -12 -14 2 -44
36 -75 10 -156 -46 -142 -41 11 -93 74 -91 113 0 17 -4 32 -10 32 -7 0 -6 4 2
9 7 4 12 12 11 17 -1 5 1 16 5 25 4 8 2 26 -4 40 -10 23 -10 23 -5 -4z"/>
</g>
</svg>
