<?xml version="1.0" standalone="no"?>
<!DOCTYPE svg PUBLIC "-//W3C//DTD SVG 20010904//EN"
 "http://www.w3.org/TR/2001/REC-SVG-20010904/DTD/svg10.dtd">
<svg version="1.0" xmlns="http://www.w3.org/2000/svg"
 width="135.000000pt" height="90.000000pt" viewBox="0 0 135.000000 90.000000"
 preserveAspectRatio="xMidYMid meet">
<metadata>
Created by potrace 1.16, written by Peter Selinger 2001-2019
</metadata>
<g transform="translate(0.000000,90.000000) scale(0.100000,-0.100000)"
fill="#000000" stroke="none">
<path d="M155 890 c-3 -6 1 -7 9 -4 18 7 21 14 7 14 -6 0 -13 -4 -16 -10z"/>
<path d="M280 896 c0 -2 7 -7 16 -10 8 -3 12 -2 9 4 -6 10 -25 14 -25 6z"/>
<path d="M396 892 c-2 -4 4 -8 14 -8 10 0 16 4 14 8 -3 4 -9 8 -14 8 -5 0 -11
-4 -14 -8z"/>
<path d="M516 892 c-2 -4 4 -8 14 -8 10 0 16 4 14 8 -3 4 -9 8 -14 8 -5 0 -11
-4 -14 -8z"/>
<path d="M636 892 c-2 -4 4 -8 14 -8 10 0 16 4 14 8 -3 4 -9 8 -14 8 -5 0 -11
-4 -14 -8z"/>
<path d="M760 896 c0 -2 7 -7 16 -10 8 -3 12 -2 9 4 -6 10 -25 14 -25 6z"/>
<path d="M880 896 c0 -2 7 -7 16 -10 8 -3 12 -2 9 4 -6 10 -25 14 -25 6z"/>
<path d="M1000 896 c0 -2 7 -7 16 -10 8 -3 12 -2 9 4 -6 10 -25 14 -25 6z"/>
<path d="M1120 896 c0 -2 7 -7 16 -10 8 -3 12 -2 9 4 -6 10 -25 14 -25 6z"/>
<path d="M1240 896 c0 -2 7 -7 16 -10 8 -3 12 -2 9 4 -6 10 -25 14 -25 6z"/>
<path d="M315 793 c-16 -2 -37 -7 -45 -10 -8 -3 -23 -7 -32 -7 -9 -1 -37 -15
-61 -33 -38 -26 -48 -40 -61 -86 -26 -89 -16 -142 29 -153 13 -3 23 -10 20
-14 -3 -5 4 -6 16 -3 12 4 25 0 30 -8 6 -10 9 -10 9 -1 0 6 7 12 15 12 8 0 24
15 35 33 37 60 18 173 -24 138 -10 -9 -11 -20 -3 -50 17 -62 -16 -87 -78 -59
-25 11 -27 14 -28 46 -1 47 48 111 103 134 42 17 166 22 229 8 72 -15 131 -64
131 -107 0 -39 -34 -91 -65 -99 -14 -3 -25 -10 -25 -14 0 -5 -8 -7 -17 -5 -10
2 -35 7 -55 10 -22 3 -38 12 -38 19 0 15 -37 29 -44 17 -3 -4 -4 -47 -3 -95 2
-83 4 -89 30 -112 26 -22 30 -23 61 -10 18 8 38 11 44 7 18 -11 29 -74 18
-103 -13 -35 -73 -68 -123 -68 -70 0 -145 38 -135 68 2 7 -1 12 -8 12 -6 0 -9
3 -6 8 5 8 -22 48 -28 41 -9 -9 -14 -59 -6 -59 4 0 6 -9 3 -20 -4 -14 0 -20
13 -20 9 0 15 -3 11 -6 -12 -12 45 -73 74 -79 16 -4 29 -11 29 -16 0 -5 5 -9
11 -9 5 0 7 5 4 10 -4 6 7 8 29 6 20 -3 38 -1 42 5 4 6 12 5 22 -3 9 -7 13 -8
10 -3 -4 6 7 17 24 24 34 15 91 88 84 108 -3 7 -2 14 3 17 9 6 7 62 -3 93 -4
12 -9 31 -11 44 -2 12 -11 29 -20 39 -21 23 -19 30 10 30 13 0 34 10 46 23 24
26 56 91 62 127 10 59 -48 146 -105 155 -18 3 -46 9 -63 14 -34 8 -115 11
-160 4z m165 -361 c8 -5 -32 -32 -47 -32 -16 0 -33 39 -26 57 5 12 33 2 73
-25z m15 28 c3 -6 -4 -10 -17 -10 -18 0 -20 2 -8 10 19 12 18 12 25 0z"/>
<path d="M5 779 c-4 -6 -5 -12 -2 -15 2 -3 7 2 10 11 7 17 1 20 -8 4z"/>
<path d="M889 681 c-23 -19 -24 -20 -7 -49 23 -38 48 -136 48 -185 0 -21 5
-47 11 -58 10 -20 11 -20 30 -3 18 16 19 26 14 74 -3 30 -10 72 -15 93 -4 20
-6 37 -3 37 3 0 0 7 -7 15 -15 18 -7 21 62 28 45 4 47 4 61 -32 23 -53 36
-100 42 -153 6 -48 16 -56 44 -39 15 10 21 79 7 84 -4 1 -9 23 -11 47 -1 25
-5 57 -10 73 -6 24 -5 27 19 28 14 1 31 3 36 4 6 1 15 3 21 4 6 0 9 8 5 16 -3
8 -1 15 5 15 6 0 8 4 5 9 -4 5 -23 5 -48 -1 -23 -5 -53 -6 -66 -3 -13 3 -39 0
-57 -7 -29 -10 -37 -9 -53 5 -26 24 -103 23 -133 -2z"/>
<path d="M724 666 c-38 -21 -55 -39 -50 -52 3 -7 0 -14 -6 -16 -15 -5 -15
-138 1 -147 7 -5 12 -12 12 -17 -2 -13 49 -64 65 -65 79 -7 107 6 130 61 18
42 4 137 -26 180 -10 14 -19 34 -21 44 -5 24 -54 33 -77 14 -12 -10 -14 -10
-8 0 8 14 8 14 -20 -2z m69 -82 c46 -70 56 -117 32 -144 -27 -30 -69 -25 -99
11 -14 17 -26 37 -26 45 0 8 -6 14 -12 15 -10 0 -10 2 0 6 6 2 12 9 12 14 0 6
-4 8 -9 5 -5 -3 -8 2 -7 12 0 9 7 21 14 25 11 7 11 12 0 25 -7 9 -9 14 -4 10
4 -3 16 2 27 13 10 10 23 19 27 19 4 0 24 -25 45 -56z"/>
<path d="M0 651 c0 -6 4 -13 10 -16 6 -3 7 1 4 9 -7 18 -14 21 -14 7z"/>
<path d="M5 539 c-4 -6 -5 -12 -2 -15 2 -3 7 2 10 11 7 17 1 20 -8 4z"/>
<path d="M0 411 c0 -6 4 -13 10 -16 6 -3 7 1 4 9 -7 18 -14 21 -14 7z"/>
<path d="M0 291 c0 -6 4 -13 10 -16 6 -3 7 1 4 9 -7 18 -14 21 -14 7z"/>
<path d="M0 171 c0 -6 4 -13 10 -16 6 -3 7 1 4 9 -7 18 -14 21 -14 7z"/>
<path d="M4 59 c-3 -6 -2 -15 3 -20 5 -5 9 -1 9 11 0 23 -2 24 -12 9z"/>
</g>
</svg>
