<?xml version="1.0" standalone="no"?>
<!DOCTYPE svg PUBLIC "-//W3C//DTD SVG 20010904//EN"
 "http://www.w3.org/TR/2001/REC-SVG-20010904/DTD/svg10.dtd">
<svg version="1.0" xmlns="http://www.w3.org/2000/svg"
 width="51.000000pt" height="61.000000pt" viewBox="0 0 51.000000 61.000000"
 preserveAspectRatio="xMidYMid meet">
<metadata>
Created by potrace 1.16, written by Peter Selinger 2001-2019
</metadata>
<g transform="translate(0.000000,61.000000) scale(0.100000,-0.100000)"
fill="#000000" stroke="none">
<path d="M14 602 c3 -5 0 -13 -6 -15 -9 -4 -10 -6 -1 -6 17 -1 25 16 12 25 -7
4 -9 3 -5 -4z"/>
<path d="M495 601 c-3 -5 -2 -12 3 -15 5 -3 9 1 9 9 0 17 -3 19 -12 6z"/>
<path d="M285 494 c-50 -7 -109 -13 -132 -13 -23 -1 -45 -6 -49 -12 -4 -7 -6
-50 -4 -98 1 -47 2 -119 1 -159 -1 -78 10 -115 34 -106 8 4 12 10 9 15 -3 5
-10 7 -15 4 -5 -4 -9 -2 -9 4 0 5 12 9 26 8 26 -2 26 -2 27 78 1 44 -2 105 -6
136 l-6 57 47 15 c26 9 50 12 55 8 13 -13 27 -122 26 -201 -1 -47 3 -76 10
-78 6 -2 9 -7 6 -12 -3 -4 4 -6 15 -3 11 3 20 12 20 19 0 8 3 13 8 13 19 -3
23 2 12 16 -7 8 -8 15 -3 15 13 0 15 48 2 56 -8 4 -7 9 2 15 10 6 11 22 1 81
l-12 73 30 27 c17 15 30 32 30 37 0 7 -28 24 -33 20 -1 -1 -42 -8 -92 -15z"/>
</g>
</svg>
