<?xml version="1.0" standalone="no"?>
<!DOCTYPE svg PUBLIC "-//W3C//DTD SVG 20010904//EN"
 "http://www.w3.org/TR/2001/REC-SVG-20010904/DTD/svg10.dtd">
<svg version="1.0" xmlns="http://www.w3.org/2000/svg"
 width="105.000000pt" height="65.000000pt" viewBox="0 0 105.000000 65.000000"
 preserveAspectRatio="xMidYMid meet">
<metadata>
Created by potrace 1.16, written by Peter Selinger 2001-2019
</metadata>
<g transform="translate(0.000000,65.000000) scale(0.100000,-0.100000)"
fill="#000000" stroke="none">
<path d="M220 529 c-93 -57 -82 -189 16 -189 27 0 36 6 49 30 18 34 19 73 4
101 -10 19 -8 20 28 13 70 -12 76 -20 69 -76 -7 -48 -42 -118 -60 -118 -5 0
-16 -8 -25 -18 -29 -34 -122 -91 -157 -98 -25 -5 -36 -13 -40 -31 -4 -16 -2
-28 7 -34 18 -11 56 -11 63 0 4 5 14 8 24 6 9 -1 27 3 38 10 16 11 24 11 34 2
10 -9 14 -9 17 0 2 7 11 9 19 6 9 -3 12 0 9 9 -4 9 0 15 9 15 8 0 12 -5 9 -10
-4 -7 1 -8 13 -3 29 11 75 16 70 7 -7 -11 30 -7 46 6 7 6 30 9 51 8 20 -1 37
2 37 6 0 5 -7 10 -15 10 -25 2 -55 1 -57 -1 -8 -7 -198 -4 -198 3 0 11 20 31
40 40 78 37 116 95 126 192 7 71 -1 82 -75 103 -103 29 -119 30 -151 11z m27
-56 c-3 -10 -8 -31 -11 -46 -5 -20 -12 -27 -24 -25 -24 5 -22 39 2 65 26 27
39 29 33 6z m213 -309 c0 -8 -19 -13 -24 -6 -3 5 1 9 9 9 8 0 15 -2 15 -3z"/>
<path d="M765 481 c-16 -4 -59 -5 -95 -4 -36 1 -74 0 -86 -2 -57 -12 -115
-120 -92 -170 6 -13 14 -22 18 -20 4 2 5 -6 3 -18 -5 -27 35 -49 76 -41 30 6
80 70 83 106 1 12 4 -11 7 -52 4 -55 10 -74 19 -72 8 1 11 -2 7 -8 -9 -15 14
-12 30 3 10 10 12 38 10 103 -2 50 -1 95 3 101 4 6 24 15 45 21 42 12 46 8 45
-43 -1 -104 2 -124 23 -136 35 -18 43 2 40 96 -2 72 0 85 13 85 9 0 16 7 16
16 0 8 5 12 10 9 6 -3 10 3 10 15 0 19 -5 21 -77 19 -43 -1 -91 -5 -108 -8z
m-85 -83 c0 -18 -2 -20 -9 -8 -6 8 -7 18 -5 22 9 14 14 9 14 -14z m-72 -34 c2
-29 -3 -45 -18 -62 -21 -23 -50 -30 -50 -12 0 6 3 10 8 10 4 0 7 18 7 39 1 41
20 74 39 68 6 -2 12 -21 14 -43z"/>
<path d="M870 190 c-8 -5 -28 -10 -43 -10 -16 0 -26 -4 -23 -9 3 -5 -3 -11
-14 -14 -22 -6 -26 3 -10 19 6 6 3 10 -10 10 -11 0 -20 -3 -20 -7 0 -4 -13 -5
-30 -3 -31 5 -42 -9 -14 -20 10 -4 13 -2 9 7 -4 6 0 4 8 -6 10 -12 17 -15 22
-7 5 8 10 8 20 0 10 -8 19 -8 34 -1 13 7 22 8 26 1 4 -7 13 -7 26 0 13 8 19 7
19 0 0 -8 6 -8 20 0 14 8 20 8 20 0 0 -6 7 -4 16 5 25 25 -24 55 -56 35z"/>
<path d="M626 181 c-4 -5 3 -15 15 -21 27 -15 31 -10 9 13 -11 11 -20 14 -24
8z"/>
<path d="M560 168 c0 -6 3 -8 7 -5 3 4 12 2 20 -5 11 -8 12 -7 7 6 -7 18 -34
22 -34 4z"/>
</g>
</svg>
