<?xml version="1.0" standalone="no"?>
<!DOCTYPE svg PUBLIC "-//W3C//DTD SVG 20010904//EN"
 "http://www.w3.org/TR/2001/REC-SVG-20010904/DTD/svg10.dtd">
<svg version="1.0" xmlns="http://www.w3.org/2000/svg"
 width="62.000000pt" height="71.000000pt" viewBox="0 0 62.000000 71.000000"
 preserveAspectRatio="xMidYMid meet">
<metadata>
Created by potrace 1.16, written by Peter Selinger 2001-2019
</metadata>
<g transform="translate(0.000000,71.000000) scale(0.100000,-0.100000)"
fill="#000000" stroke="none">
<path d="M277 596 c-20 -6 -47 -20 -60 -31 -13 -11 -32 -25 -43 -31 -31 -17
-66 -99 -68 -159 -1 -30 0 -55 4 -55 3 0 7 -12 8 -26 7 -82 105 -194 171 -194
28 0 73 69 81 125 11 75 -33 148 -97 161 -47 9 -49 -12 -4 -58 23 -23 41 -48
42 -57 0 -9 2 -24 4 -33 2 -9 -8 -29 -21 -43 -23 -25 -24 -25 -50 -9 -34 23
-75 114 -76 172 -4 110 48 184 139 198 59 9 109 -16 136 -67 19 -35 19 -77 1
-306 -6 -73 -6 -73 19 -73 40 0 49 42 51 235 1 109 -2 138 -18 173 -10 23 -25
42 -33 42 -7 0 -13 4 -13 8 0 4 -13 16 -30 25 -32 19 -84 20 -143 3z"/>
</g>
</svg>
