<?xml version="1.0" standalone="no"?>
<!DOCTYPE svg PUBLIC "-//W3C//DTD SVG 20010904//EN"
 "http://www.w3.org/TR/2001/REC-SVG-20010904/DTD/svg10.dtd">
<svg version="1.0" xmlns="http://www.w3.org/2000/svg"
 width="89.000000pt" height="68.000000pt" viewBox="0 0 89.000000 68.000000"
 preserveAspectRatio="xMidYMid meet">
<metadata>
Created by potrace 1.16, written by Peter Selinger 2001-2019
</metadata>
<g transform="translate(0.000000,68.000000) scale(0.100000,-0.100000)"
fill="#000000" stroke="none">
<path d="M570 576 c-3 -3 -34 -6 -70 -7 -46 -2 -79 -10 -119 -30 -47 -23 -68
-27 -131 -27 -85 2 -150 -16 -150 -39 0 -14 12 -15 83 -10 45 4 94 8 110 10
31 5 41 -6 42 -43 1 -14 8 -41 17 -60 34 -78 177 -81 189 -4 2 10 0 25 -4 31
-6 9 -3 11 7 7 19 -7 15 19 -8 65 -21 39 -20 41 9 41 15 0 31 -9 41 -25 20
-30 57 -33 70 -5 9 20 10 19 39 -4 29 -23 30 -28 29 -96 -2 -79 -23 -132 -75
-188 -27 -29 -36 -33 -76 -30 -45 2 -73 18 -73 41 0 7 -6 3 -12 -8 -11 -19
-11 -19 -19 0 -7 18 -8 18 -8 2 -1 -25 18 -59 29 -52 6 4 7 -1 3 -11 -4 -11
-3 -15 4 -11 6 4 13 3 15 -3 4 -13 107 -19 138 -8 37 13 97 86 114 138 28 85
30 162 7 215 -23 52 -56 84 -86 85 -12 0 -25 4 -30 9 -12 11 -78 25 -85 17z
m-82 -126 c20 -19 21 -23 8 -53 -12 -29 -17 -32 -52 -30 -22 2 -44 10 -51 19
-13 18 -7 65 10 76 22 14 63 8 85 -12z"/>
</g>
</svg>
