<?xml version="1.0" standalone="no"?>
<!DOCTYPE svg PUBLIC "-//W3C//DTD SVG 20010904//EN"
 "http://www.w3.org/TR/2001/REC-SVG-20010904/DTD/svg10.dtd">
<svg version="1.0" xmlns="http://www.w3.org/2000/svg"
 width="77.000000pt" height="85.000000pt" viewBox="0 0 77.000000 85.000000"
 preserveAspectRatio="xMidYMid meet">
<metadata>
Created by potrace 1.16, written by Peter Selinger 2001-2019
</metadata>
<g transform="translate(0.000000,85.000000) scale(0.100000,-0.100000)"
fill="#000000" stroke="none">
<path d="M718 813 c7 -3 16 -2 19 1 4 3 -2 6 -13 5 -11 0 -14 -3 -6 -6z"/>
<path d="M719 763 c-13 -16 -12 -17 4 -4 9 7 17 15 17 17 0 8 -8 3 -21 -13z"/>
<path d="M266 729 c-22 -10 -46 -19 -53 -19 -7 0 -13 -4 -13 -10 0 -5 -4 -10
-10 -10 -5 0 -19 -8 -30 -17 -69 -58 -79 -147 -25 -217 17 -23 36 -41 43 -41
6 0 17 -6 24 -12 30 -31 79 -9 101 47 25 62 2 155 -38 155 -21 0 -21 -4 -9
-76 13 -77 -44 -108 -87 -48 -31 44 -29 90 7 142 39 55 101 79 207 81 42 0 77
3 77 6 0 3 -5 12 -11 20 -9 12 -10 11 -5 -5 6 -20 6 -20 -9 -1 -11 14 -15 16
-15 5 0 -8 -3 -10 -8 -4 -17 24 -101 26 -146 4z"/>
<path d="M470 720 c0 -11 5 -20 12 -20 6 0 37 -12 69 -27 49 -23 59 -33 68
-65 10 -31 9 -44 -4 -71 -18 -39 -65 -67 -111 -67 -32 0 -43 7 -82 55 -24 28
-37 11 -35 -45 2 -49 32 -130 57 -156 19 -19 48 -25 63 -13 24 21 40 -11 34
-72 -1 -20 -40 -64 -64 -73 -24 -8 -72 20 -85 49 -6 12 -20 25 -31 28 -13 3
-19 1 -15 -5 4 -6 0 -14 -7 -19 -12 -8 -12 -11 1 -19 8 -5 11 -10 5 -10 -5 0
2 -8 15 -17 14 -10 36 -30 49 -46 20 -23 26 -26 39 -15 12 10 14 10 8 1 -10
-18 19 -6 76 31 26 16 45 34 42 38 -3 4 0 8 5 8 6 0 11 7 11 16 0 8 4 13 8 10
12 -7 14 61 3 82 -5 10 -12 38 -16 62 -4 25 -8 47 -10 51 -3 3 12 19 31 34 54
44 63 74 55 203 0 12 -9 25 -18 29 -10 3 -32 16 -49 29 -19 14 -42 21 -63 20
-18 -1 -34 1 -37 6 -10 15 -24 8 -24 -12z m49 -305 c7 -8 -9 -36 -25 -42 -17
-6 -34 12 -34 39 0 13 6 16 27 12 15 -3 29 -7 32 -9z"/>
<path d="M710 676 c0 -2 7 -7 16 -10 8 -3 12 -2 9 4 -6 10 -25 14 -25 6z"/>
<path d="M716 633 c-6 -14 -5 -15 5 -6 7 7 10 15 7 18 -3 3 -9 -2 -12 -12z"/>
<path d="M719 603 c-13 -16 -12 -17 4 -4 16 13 21 21 13 21 -2 0 -10 -8 -17
-17z"/>
<path d="M710 516 c0 -2 7 -7 16 -10 8 -3 12 -2 9 4 -6 10 -25 14 -25 6z"/>
<path d="M716 473 c-6 -14 -5 -15 5 -6 7 7 10 15 7 18 -3 3 -9 -2 -12 -12z"/>
<path d="M719 443 c-13 -16 -12 -17 4 -4 16 13 21 21 13 21 -2 0 -10 -8 -17
-17z"/>
<path d="M710 356 c0 -2 7 -7 16 -10 8 -3 12 -2 9 4 -6 10 -25 14 -25 6z"/>
<path d="M717 317 c-3 -8 1 -14 8 -14 7 0 11 6 8 14 -6 16 -10 16 -16 0z"/>
<path d="M716 135 c4 -8 11 -15 16 -15 6 0 5 6 -2 15 -7 8 -14 15 -16 15 -2 0
-1 -7 2 -15z"/>
<path d="M716 43 c-6 -14 -5 -15 5 -6 7 7 10 15 7 18 -3 3 -9 -2 -12 -12z"/>
</g>
</svg>
