<?xml version="1.0" standalone="no"?>
<!DOCTYPE svg PUBLIC "-//W3C//DTD SVG 20010904//EN"
 "http://www.w3.org/TR/2001/REC-SVG-20010904/DTD/svg10.dtd">
<svg version="1.0" xmlns="http://www.w3.org/2000/svg"
 width="64.000000pt" height="45.000000pt" viewBox="0 0 64.000000 45.000000"
 preserveAspectRatio="xMidYMid meet">
<metadata>
Created by potrace 1.16, written by Peter Selinger 2001-2019
</metadata>
<g transform="translate(0.000000,45.000000) scale(0.100000,-0.100000)"
fill="#000000" stroke="none">
<path d="M359 347 c-13 -5 -60 -10 -104 -11 -90 -2 -148 -26 -153 -64 -5 -31
22 -38 55 -14 31 22 144 43 166 31 10 -6 13 -22 10 -55 -4 -36 -2 -44 9 -38
11 6 11 5 0 -8 -9 -11 -10 -18 -2 -23 6 -3 8 -10 5 -15 -3 -4 8 -14 24 -21 16
-7 28 -16 25 -20 -2 -4 10 -9 26 -11 40 -6 89 19 102 51 21 56 27 128 9 117
-5 -4 -7 2 -4 12 3 14 -9 25 -53 47 -64 32 -81 36 -115 22z m115 -83 c25 -15
24 -71 -2 -97 -30 -29 -80 -15 -98 29 -18 44 -18 71 2 82 18 10 70 2 98 -14z"/>
</g>
</svg>
