<?xml version="1.0" standalone="no"?>
<!DOCTYPE svg PUBLIC "-//W3C//DTD SVG 20010904//EN"
 "http://www.w3.org/TR/2001/REC-SVG-20010904/DTD/svg10.dtd">
<svg version="1.0" xmlns="http://www.w3.org/2000/svg"
 width="64.000000pt" height="82.000000pt" viewBox="0 0 64.000000 82.000000"
 preserveAspectRatio="xMidYMid meet">
<metadata>
Created by potrace 1.16, written by Peter Selinger 2001-2019
</metadata>
<g transform="translate(0.000000,82.000000) scale(0.100000,-0.100000)"
fill="#000000" stroke="none">
<path d="M5 781 c-3 -5 -2 -12 3 -15 5 -3 9 1 9 9 0 17 -3 19 -12 6z"/>
<path d="M449 716 c-3 -3 -61 -13 -106 -18 -7 -1 -10 -5 -7 -10 3 -4 -2 -8
-11 -8 -9 0 -14 4 -10 10 5 9 -142 5 -193 -6 -23 -5 -24 -8 -18 -62 3 -31 9
-93 12 -137 7 -102 12 -136 26 -152 14 -18 40 -16 64 3 10 8 14 13 7 10 -13
-7 -12 19 2 31 4 4 5 3 2 -3 -4 -7 4 -14 19 -18 15 -4 24 -10 20 -13 -7 -7 13
-33 25 -33 5 0 9 8 9 18 0 13 2 14 9 3 7 -11 14 -8 32 13 30 34 37 57 38 127
1 40 6 61 18 70 11 10 14 10 9 2 -5 -9 0 -13 13 -14 12 -1 29 -2 39 -3 34 -2
42 -64 16 -138 -11 -33 -31 -60 -76 -99 -34 -30 -71 -62 -82 -73 -12 -10 -36
-30 -53 -43 -35 -27 -44 -49 -17 -39 13 5 14 3 6 -7 -8 -10 -6 -16 8 -25 12
-7 21 -8 25 -2 4 6 11 8 16 5 5 -4 9 1 9 10 0 10 -5 13 -12 9 -7 -4 -8 -3 -4
4 4 6 13 9 20 6 18 -7 41 22 25 32 -7 4 -9 3 -5 -4 3 -6 2 -13 -3 -16 -5 -4
-8 2 -7 11 2 12 10 17 24 15 16 -2 20 1 16 12 -3 9 -11 13 -18 9 -6 -3 -7 -2
-3 2 10 12 38 15 32 4 -4 -5 1 -6 10 -3 12 5 13 9 4 20 -9 12 -9 13 4 9 8 -4
18 -1 23 6 5 8 3 10 -7 4 -8 -5 -11 -4 -6 1 9 9 13 10 42 13 8 0 15 9 16 19 0
10 3 12 6 5 4 -10 7 -10 17 0 39 39 64 113 61 186 -2 64 -18 91 -55 91 -12 0
-19 4 -16 8 4 7 -11 10 -79 15 -17 2 -20 9 -20 44 0 22 -3 39 -7 36 -5 -2 -8
1 -8 6 0 6 7 11 15 11 8 0 15 -4 15 -10 0 -5 9 -10 20 -10 11 0 29 -6 41 -12
17 -11 22 -10 35 7 14 18 13 22 -8 39 l-23 19 25 -8 c22 -7 23 -6 11 9 -13 16
-24 20 -32 12z m-45 -45 c-5 -4 -20 -2 -34 6 l-25 14 28 -4 c15 -2 27 0 28 7
0 6 3 5 6 -2 3 -8 1 -17 -3 -21z m-113 6 c-1 -12 -15 -9 -19 4 -3 6 1 10 8 8
6 -3 11 -8 11 -12z m-5 -71 c3 -12 6 -59 7 -104 2 -101 -10 -120 -60 -95 -28
13 -32 20 -30 47 1 17 9 36 17 43 13 10 11 13 -12 22 -24 9 -28 16 -28 49 0
43 16 56 71 58 22 1 31 -4 35 -20z m-16 -486 c0 -5 -5 -10 -11 -10 -5 0 -7 5
-4 10 3 6 8 10 11 10 2 0 4 -4 4 -10z"/>
<path d="M260 530 c-8 -5 -12 -12 -9 -15 4 -3 12 1 19 10 14 17 11 19 -10 5z"/>
</g>
</svg>
