<?xml version="1.0" standalone="no"?>
<!DOCTYPE svg PUBLIC "-//W3C//DTD SVG 20010904//EN"
 "http://www.w3.org/TR/2001/REC-SVG-20010904/DTD/svg10.dtd">
<svg version="1.0" xmlns="http://www.w3.org/2000/svg"
 width="87.000000pt" height="108.000000pt" viewBox="0 0 87.000000 108.000000"
 preserveAspectRatio="xMidYMid meet">
<metadata>
Created by potrace 1.16, written by Peter Selinger 2001-2019
</metadata>
<g transform="translate(0.000000,108.000000) scale(0.100000,-0.100000)"
fill="#000000" stroke="none">
<path d="M240 1076 c0 -2 7 -7 16 -10 8 -3 12 -2 9 4 -6 10 -25 14 -25 6z"/>
<path d="M360 1076 c0 -2 7 -7 16 -10 8 -3 12 -2 9 4 -6 10 -25 14 -25 6z"/>
<path d="M480 1076 c0 -2 7 -7 16 -10 8 -3 12 -2 9 4 -6 10 -25 14 -25 6z"/>
<path d="M720 1076 c0 -2 7 -7 16 -10 8 -3 12 -2 9 4 -6 10 -25 14 -25 6z"/>
<path d="M468 975 c-4 -4 -73 -16 -127 -21 -25 -2 -47 -7 -50 -11 -3 -5 -11
-9 -17 -10 -6 -1 -24 -4 -39 -7 -54 -10 -135 -122 -135 -186 0 -54 34 -102 94
-134 27 -14 32 -13 58 2 70 41 100 214 40 237 -23 9 -36 -21 -33 -77 2 -43
-21 -108 -39 -108 -22 1 -68 62 -65 85 6 40 22 69 51 95 34 29 94 65 94 56 0
-3 15 1 34 9 18 8 37 11 40 7 4 -3 11 0 16 8 6 8 10 10 10 5 0 -7 24 -8 66 -5
36 3 67 3 70 1 8 -9 43 -8 38 1 -3 4 0 8 5 8 6 0 11 -4 11 -10 0 -5 6 -10 13
-10 17 0 64 -42 80 -73 7 -14 15 -51 16 -83 2 -56 1 -57 -45 -100 -26 -24 -53
-44 -61 -44 -7 0 -16 -7 -19 -15 -4 -8 -15 -15 -26 -15 -12 0 -17 -4 -12 -12
5 -7 0 -9 -14 -6 -12 3 -23 1 -26 -6 -3 -7 -5 -7 -5 2 -1 6 -12 12 -25 12 -14
0 -31 8 -38 18 -20 28 -37 35 -54 22 -13 -12 -13 -77 2 -150 1 -8 3 -21 3 -27
2 -21 51 -46 88 -45 l35 1 -5 -50 c-11 -96 -73 -153 -184 -168 -60 -9 -74 0
-47 30 34 38 9 113 -41 120 -42 5 -91 -31 -81 -58 4 -9 1 -20 -5 -24 -8 -5 -5
-12 10 -25 11 -10 21 -24 21 -31 0 -7 7 -13 16 -13 8 0 13 -4 10 -9 -11 -17
42 -61 74 -61 17 0 29 4 26 9 -3 4 5 6 17 4 12 -2 39 5 60 15 23 13 37 16 37
8 0 -6 5 -4 10 4 5 8 15 15 22 16 37 3 40 5 34 21 -4 10 -4 14 0 11 11 -12 43
11 59 42 9 17 12 30 8 30 -5 0 -2 4 6 9 7 5 15 26 16 47 2 22 7 72 11 113 6
64 5 76 -10 87 -16 11 -16 13 6 20 13 4 28 14 35 23 6 9 15 16 20 16 16 1 92
55 107 77 9 12 16 37 16 55 0 20 5 33 13 33 9 0 9 2 1 8 -7 4 -11 16 -11 27 3
46 -16 93 -54 138 -22 26 -44 45 -48 43 -4 -3 -13 -1 -21 4 -8 5 -19 5 -26 -1
-8 -6 -14 -5 -18 6 -6 17 -56 21 -56 4 0 -5 -4 -7 -10 -4 -13 8 -47 15 -52 10z
m-138 -55 c0 -5 -5 -10 -11 -10 -5 0 -7 5 -4 10 3 6 8 10 11 10 2 0 4 -4 4
-10z m184 -427 c-8 -43 -40 -56 -68 -28 -23 24 -9 47 25 41 16 -2 31 0 35 5
10 16 13 9 8 -18z"/>
<path d="M0 911 c0 -6 4 -13 10 -16 6 -3 7 1 4 9 -7 18 -14 21 -14 7z"/>
<path d="M0 671 c0 -6 4 -13 10 -16 6 -3 7 1 4 9 -7 18 -14 21 -14 7z"/>
<path d="M0 551 c0 -6 4 -13 10 -16 6 -3 7 1 4 9 -7 18 -14 21 -14 7z"/>
<path d="M0 431 c0 -6 4 -13 10 -16 6 -3 7 1 4 9 -7 18 -14 21 -14 7z"/>
<path d="M0 311 c0 -6 4 -13 10 -16 6 -3 7 1 4 9 -7 18 -14 21 -14 7z"/>
<path d="M0 191 c0 -6 4 -13 10 -16 6 -3 7 1 4 9 -7 18 -14 21 -14 7z"/>
<path d="M0 71 c0 -6 4 -13 10 -16 6 -3 7 1 4 9 -7 18 -14 21 -14 7z"/>
</g>
</svg>
