<?xml version="1.0" standalone="no"?>
<!DOCTYPE svg PUBLIC "-//W3C//DTD SVG 20010904//EN"
 "http://www.w3.org/TR/2001/REC-SVG-20010904/DTD/svg10.dtd">
<svg version="1.0" xmlns="http://www.w3.org/2000/svg"
 width="71.000000pt" height="78.000000pt" viewBox="0 0 71.000000 78.000000"
 preserveAspectRatio="xMidYMid meet">
<metadata>
Created by potrace 1.16, written by Peter Selinger 2001-2019
</metadata>
<g transform="translate(0.000000,78.000000) scale(0.100000,-0.100000)"
fill="#000000" stroke="none">
<path d="M178 673 c-11 -56 -18 -124 -23 -213 -5 -109 -31 -268 -46 -286 -9
-11 6 -63 20 -65 3 0 25 -2 49 -5 27 -2 41 0 37 6 -3 5 -4 10 -1 10 2 0 11 3
20 6 9 3 16 1 16 -6 0 -6 -5 -8 -12 -4 -7 5 -8 3 -3 -6 7 -11 10 -10 19 1 7 8
25 13 46 11 63 -4 103 -2 114 8 7 5 17 5 26 0 26 -16 75 -11 98 10 12 12 22
24 23 28 0 4 2 14 4 22 1 8 5 29 8 45 3 17 12 48 19 70 30 86 3 261 -44 286
-22 12 -100 4 -131 -13 -83 -44 -134 -202 -116 -358 l4 -35 -59 -3 -58 -4 7
44 c9 48 12 78 20 193 15 220 14 234 -1 250 -17 16 -33 20 -36 8z m353 -166
c6 -11 13 -54 14 -95 3 -74 -5 -112 -41 -188 -16 -34 -18 -35 -72 -32 -59 3
-55 0 -67 68 -2 14 -5 55 -5 92 -1 59 2 73 29 111 48 71 117 92 142 44z"/>
</g>
</svg>
