<?xml version="1.0" standalone="no"?>
<!DOCTYPE svg PUBLIC "-//W3C//DTD SVG 20010904//EN"
 "http://www.w3.org/TR/2001/REC-SVG-20010904/DTD/svg10.dtd">
<svg version="1.0" xmlns="http://www.w3.org/2000/svg"
 width="61.000000pt" height="77.000000pt" viewBox="0 0 61.000000 77.000000"
 preserveAspectRatio="xMidYMid meet">
<metadata>
Created by potrace 1.16, written by Peter Selinger 2001-2019
</metadata>
<g transform="translate(0.000000,77.000000) scale(0.100000,-0.100000)"
fill="#000000" stroke="none">
<path d="M20 761 c0 -7 -5 -9 -12 -5 -7 5 -8 3 -3 -5 5 -9 10 -10 18 -2 6 6 8
14 4 18 -4 3 -7 1 -7 -6z"/>
<path d="M345 643 c-14 -15 -25 -33 -25 -40 0 -7 -5 -13 -11 -13 -7 0 -9 -10
-7 -25 3 -13 1 -22 -3 -19 -5 3 -10 2 -10 -3 -3 -18 -8 -51 -16 -98 -8 -49 -9
-50 -43 -50 -32 0 -35 2 -34 30 1 17 4 46 7 65 19 117 19 131 1 145 -28 20
-42 7 -50 -43 -4 -26 -9 -56 -11 -67 -3 -11 -7 -38 -10 -60 -3 -22 -10 -56
-17 -75 -16 -50 -10 -77 21 -84 13 -4 30 -3 36 2 7 5 29 12 51 15 l39 6 -6
-51 c-11 -93 -62 -130 -109 -79 -32 35 -52 39 -44 9 3 -13 6 -27 6 -32 0 -5 8
-2 17 5 15 11 14 10 -1 -9 -18 -21 -14 -28 16 -23 4 0 5 -6 2 -14 -4 -10 0
-15 11 -15 9 0 14 -4 11 -8 -2 -4 8 -9 24 -10 21 -2 32 4 40 18 6 11 14 18 19
16 7 -4 44 31 47 44 4 21 19 40 35 45 11 4 17 10 14 14 -2 5 6 7 19 6 13 -2
29 1 37 6 11 6 8 9 -8 9 -13 0 -23 5 -23 11 0 5 -4 8 -9 5 -11 -7 -21 17 -21
50 0 25 0 25 79 29 29 1 53 9 69 24 23 20 24 26 19 91 -4 38 -14 86 -23 107
-9 21 -18 44 -20 51 -10 49 -79 58 -119 15z m25 -27 c0 -3 -4 -8 -10 -11 -5
-3 -10 -1 -10 4 0 6 5 11 10 11 6 0 10 -2 10 -4z m75 -59 c32 -80 5 -142 -67
-154 l-38 -6 0 74 c0 62 4 78 26 110 23 33 28 36 45 26 10 -6 25 -29 34 -50z
m25 13 c0 -5 -2 -10 -4 -10 -3 0 -8 5 -11 10 -3 6 -1 10 4 10 6 0 11 -4 11
-10z"/>
</g>
</svg>
