<?xml version="1.0" standalone="no"?>
<!DOCTYPE svg PUBLIC "-//W3C//DTD SVG 20010904//EN"
 "http://www.w3.org/TR/2001/REC-SVG-20010904/DTD/svg10.dtd">
<svg version="1.0" xmlns="http://www.w3.org/2000/svg"
 width="79.000000pt" height="71.000000pt" viewBox="0 0 79.000000 71.000000"
 preserveAspectRatio="xMidYMid meet">
<metadata>
Created by potrace 1.16, written by Peter Selinger 2001-2019
</metadata>
<g transform="translate(0.000000,71.000000) scale(0.100000,-0.100000)"
fill="#000000" stroke="none">
<path d="M270 595 c-9 -11 -17 -12 -31 -5 -14 8 -23 6 -39 -10 -11 -11 -20
-17 -20 -14 0 4 -7 1 -15 -6 -8 -7 -12 -16 -9 -21 3 -5 -1 -6 -9 -3 -8 3 -14
-1 -14 -10 0 -8 5 -12 10 -9 5 3 7 0 5 -8 -3 -8 -12 -13 -19 -11 -11 3 -11 1
-2 -8 14 -15 33 -5 33 17 0 9 3 14 6 10 6 -5 15 0 48 30 8 7 16 10 19 7 3 -3
15 -3 28 1 17 6 19 9 8 16 -8 5 -9 9 -3 9 19 0 61 -55 76 -100 45 -134 45
-130 -13 -130 -39 0 -39 0 -35 35 5 39 -7 92 -28 120 -12 17 -16 17 -31 5 -13
-11 -16 -25 -11 -64 5 -53 -6 -86 -30 -86 -24 0 -64 47 -64 75 0 16 -6 25 -16
25 -14 0 -15 -2 -3 -17 10 -11 10 -14 2 -9 -10 5 -11 1 -4 -17 6 -14 8 -27 5
-29 -2 -3 10 -17 26 -33 37 -35 37 -39 4 -78 -20 -24 -25 -38 -21 -64 6 -37
33 -69 62 -75 11 -2 19 -9 18 -14 -2 -11 20 -15 97 -17 43 -2 54 1 52 12 -3
12 0 12 12 2 20 -17 29 2 11 25 -9 12 -14 14 -15 6 0 -7 -3 -11 -7 -9 -5 3
-30 8 -58 11 -54 8 -95 29 -95 49 0 19 42 71 60 75 8 2 24 6 35 9 11 2 52 6
90 8 106 6 146 18 188 58 41 37 37 139 -8 191 -37 43 -122 60 -151 31 -20 -20
-51 -19 -62 2 -5 9 -18 17 -28 18 -11 0 -24 4 -31 8 -6 4 -16 0 -23 -8z m-20
-28 c0 -8 -3 -8 -11 0 -6 6 -19 9 -28 6 -13 -4 -13 -3 -2 5 16 12 41 5 41 -11z
m268 -50 c6 -7 13 -26 16 -42 10 -55 -73 -129 -88 -77 -16 59 -17 84 -2 107
18 27 57 33 74 12z"/>
<path d="M617 286 c-2 -6 -2 -32 0 -57 5 -49 5 -49 -65 -41 -6 1 -29 20 -51
43 -31 33 -43 40 -61 34 -19 -6 -21 -13 -18 -51 2 -35 0 -45 -14 -50 -20 -6
-23 -22 -7 -44 9 -12 10 -12 5 4 -6 17 -5 17 11 5 14 -12 16 -12 8 0 -6 11 -2
13 18 9 15 -3 28 -1 29 3 2 5 16 5 33 0 39 -11 97 -3 88 13 -4 6 1 5 10 -3 14
-11 17 -11 17 0 0 11 2 11 10 -1 8 -12 10 -12 16 3 8 22 25 22 17 0 -4 -14 -3
-15 6 -7 20 18 25 101 7 126 -16 23 -53 32 -59 14z"/>
</g>
</svg>
