<?xml version="1.0" standalone="no"?>
<!DOCTYPE svg PUBLIC "-//W3C//DTD SVG 20010904//EN"
 "http://www.w3.org/TR/2001/REC-SVG-20010904/DTD/svg10.dtd">
<svg version="1.0" xmlns="http://www.w3.org/2000/svg"
 width="57.000000pt" height="58.000000pt" viewBox="0 0 57.000000 58.000000"
 preserveAspectRatio="xMidYMid meet">
<metadata>
Created by potrace 1.16, written by Peter Selinger 2001-2019
</metadata>
<g transform="translate(0.000000,58.000000) scale(0.100000,-0.100000)"
fill="#000000" stroke="none">
<path d="M146 468 c-3 -7 -7 -60 -10 -117 -3 -60 -13 -125 -23 -153 -13 -36
-14 -52 -6 -71 12 -25 40 -30 65 -10 15 12 59 28 71 25 4 -1 7 3 7 10 0 6 3 8
7 5 3 -4 12 -2 19 3 6 6 16 10 20 9 5 -1 20 -1 34 0 20 1 22 3 10 11 -12 8 -9
10 13 10 16 0 26 4 23 8 -7 12 -73 13 -134 3 l-54 -8 6 46 c4 25 9 82 13 127
5 77 4 82 -18 98 -28 19 -38 20 -43 4z m164 -288 c0 -5 -2 -10 -4 -10 -3 0 -8
5 -11 10 -3 6 -1 10 4 10 6 0 11 -4 11 -10z"/>
<path d="M413 223 c-13 -2 -23 -8 -23 -13 0 -5 16 -4 35 1 19 6 40 7 47 3 7
-4 8 -3 4 4 -7 12 -21 13 -63 5z"/>
</g>
</svg>
