<?xml version="1.0" standalone="no"?>
<!DOCTYPE svg PUBLIC "-//W3C//DTD SVG 20010904//EN"
 "http://www.w3.org/TR/2001/REC-SVG-20010904/DTD/svg10.dtd">
<svg version="1.0" xmlns="http://www.w3.org/2000/svg"
 width="79.000000pt" height="64.000000pt" viewBox="0 0 79.000000 64.000000"
 preserveAspectRatio="xMidYMid meet">
<metadata>
Created by potrace 1.16, written by Peter Selinger 2001-2019
</metadata>
<g transform="translate(0.000000,64.000000) scale(0.100000,-0.100000)"
fill="#000000" stroke="none">
<path d="M720 636 c0 -2 7 -7 16 -10 8 -3 12 -2 9 4 -6 10 -25 14 -25 6z"/>
<path d="M455 533 c-11 -3 -26 -10 -33 -16 -11 -8 -49 -12 -165 -16 -11 -1
-15 -5 -11 -13 4 -7 3 -8 -4 -4 -13 8 -92 -30 -92 -44 0 -6 0 -13 1 -17 0 -5
-10 -10 -23 -13 -14 -4 -24 -15 -26 -28 -4 -24 36 -102 52 -102 5 0 7 -3 3 -6
-7 -7 24 -44 38 -44 6 0 21 -10 33 -22 35 -38 49 -48 117 -78 50 -23 78 -29
122 -27 32 1 60 5 63 8 3 4 14 9 25 11 11 1 29 11 39 21 11 9 26 17 33 17 8 0
12 4 8 9 -3 5 6 18 20 29 38 30 40 82 6 129 -53 72 -82 86 -136 69 -17 -6 -22
-1 -31 29 -11 34 -10 37 12 47 13 6 24 17 24 24 0 7 6 15 13 17 6 3 2 6 -10 6
-13 1 -23 6 -23 11 0 10 -20 11 -55 3z m-54 -44 c-14 -5 -28 -6 -32 -2 -4 4 6
9 24 10 30 1 31 1 8 -8z m-2 -19 c14 0 22 -16 34 -72 15 -66 24 -114 26 -144
1 -10 47 -11 57 -1 3 2 7 17 10 33 3 16 9 33 15 40 5 6 6 14 3 17 -4 4 4 4 17
2 27 -5 69 -52 69 -77 0 -44 -88 -107 -153 -110 -38 -1 -116 46 -117 71 0 11
-4 10 -20 -4 -18 -16 -20 -16 -35 -1 -9 9 -21 16 -26 16 -6 0 -8 4 -5 9 3 5
15 7 26 4 27 -7 110 33 112 55 0 9 2 24 2 32 2 16 -28 76 -50 101 -19 21 -18
43 2 35 9 -3 24 -6 33 -6z m-159 -4 c0 -2 -7 -7 -16 -10 -8 -3 -12 -2 -9 4 6
10 25 14 25 6z m100 -6 c0 -5 -5 -10 -10 -10 -13 0 -2 -47 17 -77 24 -37 2
-63 -53 -63 -37 0 -51 6 -75 29 -16 16 -29 38 -29 48 0 20 29 66 30 48 0 -5 4
-4 9 4 5 8 29 18 53 21 23 4 46 8 51 9 4 0 7 -3 7 -9z"/>
</g>
</svg>
