<?xml version="1.0" standalone="no"?>
<!DOCTYPE svg PUBLIC "-//W3C//DTD SVG 20010904//EN"
 "http://www.w3.org/TR/2001/REC-SVG-20010904/DTD/svg10.dtd">
<svg version="1.0" xmlns="http://www.w3.org/2000/svg"
 width="50.000000pt" height="70.000000pt" viewBox="0 0 50.000000 70.000000"
 preserveAspectRatio="xMidYMid meet">
<metadata>
Created by potrace 1.16, written by Peter Selinger 2001-2019
</metadata>
<g transform="translate(0.000000,70.000000) scale(0.100000,-0.100000)"
fill="#000000" stroke="none">
<path d="M338 602 c-16 -2 -28 -8 -28 -13 0 -6 -4 -8 -9 -5 -11 7 -93 -63 -86
-74 3 -5 -3 -11 -14 -15 -11 -3 -29 -20 -40 -38 -11 -18 -21 -25 -21 -17 -1 8
-8 0 -16 -19 -8 -19 -12 -41 -10 -48 3 -7 2 -13 -3 -13 -13 0 -13 -138 0 -178
24 -73 97 -107 136 -63 48 52 83 112 83 140 0 30 -33 52 -67 45 -23 -5 -30
-11 -28 -27 1 -12 4 -23 5 -24 1 -2 2 -11 3 -20 0 -32 -15 -53 -37 -53 -26 0
-42 39 -38 92 3 29 8 37 29 43 51 12 148 89 137 107 -3 5 2 8 10 8 19 0 42 43
50 93 8 50 -16 83 -56 79z m-23 -104 c-10 -33 -44 -67 -85 -85 -19 -9 -39 -18
-43 -21 -16 -8 11 33 45 69 53 57 94 75 83 37z"/>
</g>
</svg>
