<?xml version="1.0" standalone="no"?>
<!DOCTYPE svg PUBLIC "-//W3C//DTD SVG 20010904//EN"
 "http://www.w3.org/TR/2001/REC-SVG-20010904/DTD/svg10.dtd">
<svg version="1.0" xmlns="http://www.w3.org/2000/svg"
 width="81.000000pt" height="55.000000pt" viewBox="0 0 81.000000 55.000000"
 preserveAspectRatio="xMidYMid meet">
<metadata>
Created by potrace 1.16, written by Peter Selinger 2001-2019
</metadata>
<g transform="translate(0.000000,55.000000) scale(0.100000,-0.100000)"
fill="#000000" stroke="none">
<path d="M299 438 c-10 -4 -19 -5 -19 -2 0 3 -19 -8 -42 -24 -24 -16 -47 -31
-53 -32 -5 -1 -9 -6 -8 -11 2 -4 -4 -6 -12 -3 -8 4 -17 -1 -21 -10 -3 -9 -10
-14 -14 -11 -10 6 -20 -31 -20 -78 0 -25 4 -36 11 -31 7 4 9 -2 7 -17 -2 -15
2 -23 9 -22 7 2 10 -3 7 -10 -12 -31 103 -93 151 -81 29 7 48 43 48 91 0 45
-20 87 -62 132 -26 28 -34 31 -46 21 -21 -17 -19 -26 13 -57 62 -61 57 -142
-7 -123 -16 4 -31 6 -34 4 -7 -7 -50 41 -54 60 -2 9 -5 24 -6 33 -8 39 46 97
103 112 8 2 26 7 40 10 41 12 135 8 133 -6 -2 -7 6 -10 17 -8 11 2 20 0 20 -5
0 -5 8 -11 18 -14 26 -9 50 -65 45 -106 -8 -65 -41 -78 -90 -36 -25 22 -28 30
-28 90 0 62 -1 66 -22 66 -23 0 -27 -7 -25 -45 3 -42 6 -53 14 -49 5 3 5 10 2
16 -4 6 -2 8 4 5 5 -4 8 -17 4 -29 -4 -16 -2 -19 9 -13 12 7 12 6 1 -7 -9 -11
-10 -18 -2 -23 6 -3 8 -11 5 -16 -4 -5 2 -9 12 -9 15 0 16 -2 3 -10 -10 -6
-11 -10 -2 -10 6 0 21 -8 31 -17 41 -38 51 -43 68 -36 25 9 53 43 53 64 0 10
4 20 8 23 17 10 13 93 -4 111 -9 9 -17 26 -18 37 -1 13 -9 22 -20 24 -10 1
-22 6 -25 11 -3 4 -15 15 -25 23 -16 12 -18 12 -11 1 6 -11 5 -12 -6 -5 -8 4
-20 9 -28 11 -8 1 -17 6 -20 10 -7 11 -84 11 -112 1z m229 -103 c-3 -3 -9 2
-12 12 -6 14 -5 15 5 6 7 -7 10 -15 7 -18z m-117 -112 c13 -16 12 -17 -3 -4
-10 7 -18 15 -18 17 0 8 8 3 21 -13z"/>
<path d="M635 412 c-35 -7 -44 -21 -35 -50 5 -15 11 -40 14 -57 2 -16 5 -31 6
-32 2 -2 3 -6 4 -10 14 -61 42 -102 65 -96 20 5 21 29 4 73 -25 61 -34 102
-29 128 7 34 -3 49 -29 44z"/>
</g>
</svg>
