<?xml version="1.0" standalone="no"?>
<!DOCTYPE svg PUBLIC "-//W3C//DTD SVG 20010904//EN"
 "http://www.w3.org/TR/2001/REC-SVG-20010904/DTD/svg10.dtd">
<svg version="1.0" xmlns="http://www.w3.org/2000/svg"
 width="61.000000pt" height="75.000000pt" viewBox="0 0 61.000000 75.000000"
 preserveAspectRatio="xMidYMid meet">
<metadata>
Created by potrace 1.16, written by Peter Selinger 2001-2019
</metadata>
<g transform="translate(0.000000,75.000000) scale(0.100000,-0.100000)"
fill="#000000" stroke="none">
<path d="M0 701 c0 -6 4 -13 10 -16 6 -3 7 1 4 9 -7 18 -14 21 -14 7z"/>
<path d="M435 640 c4 -6 -6 -10 -22 -10 -16 0 -34 -5 -41 -12 -7 -7 -50 -11
-117 -11 -123 1 -135 -7 -111 -74 7 -21 16 -59 20 -84 12 -83 17 -101 32 -130
8 -16 21 -29 28 -29 16 0 31 53 21 70 -3 5 -8 31 -11 57 -3 27 -9 60 -14 75
-11 33 9 58 46 58 14 0 23 5 22 13 -2 6 5 11 15 11 13 -1 15 2 8 10 -14 16 30
16 47 -1 11 -10 52 -201 52 -240 0 -8 -39 -32 -87 -55 -49 -22 -93 -45 -100
-50 -13 -11 -6 -41 8 -32 5 3 7 9 5 13 -3 4 1 8 9 8 8 0 12 -4 9 -9 -3 -4 2
-8 11 -8 9 0 14 4 11 8 -3 5 9 6 26 4 22 -3 27 -7 17 -14 -11 -7 -9 -8 4 -4
10 3 21 6 23 6 3 0 3 4 -1 9 -7 12 8 21 43 27 71 12 84 17 94 40 8 16 8 27 0
36 -11 14 -28 98 -38 191 -6 55 -6 57 18 57 46 0 66 50 29 70 -25 13 -64 13
-56 0z m-110 -400 c-3 -5 -12 -10 -18 -10 -7 0 -6 4 3 10 19 12 23 12 15 0z"/>
<path d="M161 195 c-20 -17 -28 -31 -24 -42 5 -12 3 -14 -7 -8 -9 6 -11 4 -5
-5 6 -10 4 -12 -8 -7 -11 4 -15 0 -14 -14 2 -24 1 -24 31 4 13 12 32 28 41 35
11 10 13 17 6 26 -8 9 -7 13 4 13 8 0 12 -4 9 -8 -2 -4 0 -10 6 -14 5 -3 10
-1 10 5 0 6 5 8 11 5 6 -4 5 2 -3 14 -16 27 -20 26 -57 -4z m9 -25 c0 -5 -4
-10 -10 -10 -5 0 -10 5 -10 10 0 6 5 10 10 10 6 0 10 -4 10 -10z"/>
</g>
</svg>
