<?xml version="1.0" standalone="no"?>
<!DOCTYPE svg PUBLIC "-//W3C//DTD SVG 20010904//EN"
 "http://www.w3.org/TR/2001/REC-SVG-20010904/DTD/svg10.dtd">
<svg version="1.0" xmlns="http://www.w3.org/2000/svg"
 width="63.000000pt" height="66.000000pt" viewBox="0 0 63.000000 66.000000"
 preserveAspectRatio="xMidYMid meet">
<metadata>
Created by potrace 1.16, written by Peter Selinger 2001-2019
</metadata>
<g transform="translate(0.000000,66.000000) scale(0.100000,-0.100000)"
fill="#000000" stroke="none">
<path d="M277 546 c-171 -12 -190 -19 -162 -63 20 -30 27 -164 11 -195 -8 -16
-10 -33 -4 -49 8 -23 7 -23 -7 -5 -15 20 -15 20 -15 0 0 -11 5 -25 12 -32 7
-7 9 -12 4 -12 -4 0 3 -14 15 -31 15 -21 24 -27 29 -19 5 9 9 9 14 1 5 -8 13
-8 27 -1 10 6 19 7 18 3 -3 -18 1 -36 8 -30 3 4 12 2 18 -3 18 -15 77 29 100
75 11 22 21 42 23 44 1 3 8 -3 15 -12 13 -17 72 -44 63 -28 -3 5 1 14 9 21 13
11 14 10 9 -4 -9 -24 15 -20 40 7 23 25 33 71 18 81 -5 3 -7 16 -5 28 6 31
-82 123 -116 123 -25 0 -51 29 -38 41 4 4 27 8 53 9 27 1 49 7 54 16 6 8 6 15
0 17 -5 2 -6 10 -3 18 3 9 -1 13 -13 12 -11 0 -90 -6 -177 -12z m117 -20 c-21
-15 -30 -14 -19 3 3 6 14 11 23 11 13 0 13 -2 -4 -14z m-104 -85 c0 -33 -4
-40 -25 -45 -14 -4 -30 -4 -35 -1 -4 3 -10 -1 -13 -7 -7 -20 -19 -2 -24 36 -4
31 -1 37 19 45 13 6 35 10 51 10 25 1 27 -2 27 -38z m139 -68 c69 -40 45 -150
-26 -112 -24 13 -27 22 -37 92 -4 31 -2 37 14 37 10 0 32 -8 49 -17z m-128
-22 c3 -69 -2 -106 -19 -134 -15 -26 -24 -32 -53 -32 -29 0 -34 3 -33 23 4
126 2 120 39 145 46 31 65 30 66 -2z"/>
</g>
</svg>
