<?xml version="1.0" standalone="no"?>
<!DOCTYPE svg PUBLIC "-//W3C//DTD SVG 20010904//EN"
 "http://www.w3.org/TR/2001/REC-SVG-20010904/DTD/svg10.dtd">
<svg version="1.0" xmlns="http://www.w3.org/2000/svg"
 width="62.000000pt" height="84.000000pt" viewBox="0 0 62.000000 84.000000"
 preserveAspectRatio="xMidYMid meet">
<metadata>
Created by potrace 1.16, written by Peter Selinger 2001-2019
</metadata>
<g transform="translate(0.000000,84.000000) scale(0.100000,-0.100000)"
fill="#000000" stroke="none">
<path d="M344 721 c-11 -10 -31 -22 -44 -26 -57 -18 -145 -156 -169 -265 -5
-25 -13 -61 -18 -80 -22 -101 6 -193 67 -221 63 -29 95 -30 123 -6 14 12 27
33 29 47 2 14 13 29 26 35 12 5 22 13 22 18 0 4 -6 5 -12 2 -7 -3 -6 0 3 6 23
18 4 94 -30 118 -56 39 -155 10 -125 -37 11 -16 18 -18 72 -21 31 -1 30 -48
-4 -88 -23 -28 -29 -30 -57 -22 -35 10 -49 22 -55 46 -9 39 -2 203 9 203 3 0
15 29 28 64 27 78 78 140 136 166 109 49 148 -2 63 -80 -34 -31 -83 -50 -130
-50 -27 0 -30 -4 -30 -35 0 -31 3 -35 26 -35 39 0 86 12 81 20 -3 5 11 14 30
20 64 21 129 105 127 163 -1 49 -37 77 -97 77 -36 0 -57 -5 -71 -19z"/>
</g>
</svg>
