<?xml version="1.0" standalone="no"?>
<!DOCTYPE svg PUBLIC "-//W3C//DTD SVG 20010904//EN"
 "http://www.w3.org/TR/2001/REC-SVG-20010904/DTD/svg10.dtd">
<svg version="1.0" xmlns="http://www.w3.org/2000/svg"
 width="86.000000pt" height="59.000000pt" viewBox="0 0 86.000000 59.000000"
 preserveAspectRatio="xMidYMid meet">
<metadata>
Created by potrace 1.16, written by Peter Selinger 2001-2019
</metadata>
<g transform="translate(0.000000,59.000000) scale(0.100000,-0.100000)"
fill="#000000" stroke="none">
<path d="M120 586 c0 -2 7 -7 16 -10 8 -3 12 -2 9 4 -6 10 -25 14 -25 6z"/>
<path d="M600 586 c0 -2 7 -7 16 -10 8 -3 12 -2 9 4 -6 10 -25 14 -25 6z"/>
<path d="M502 474 c-10 -11 -27 -13 -65 -9 -60 7 -59 7 -109 -1 -21 -3 -38
-10 -38 -16 0 -5 -4 -6 -10 -3 -5 3 -10 1 -10 -5 0 -6 -4 -8 -10 -5 -5 3 -10
1 -10 -5 0 -7 8 -9 20 -5 11 3 20 2 20 -4 0 -5 -15 -8 -34 -5 -23 3 -38 -1
-47 -12 -12 -15 -11 -16 10 -9 16 5 21 4 17 -4 -4 -6 -18 -11 -31 -11 -18 0
-32 -11 -50 -40 -14 -22 -25 -44 -25 -49 0 -5 -8 -12 -17 -15 -14 -6 -15 -9
-3 -16 16 -10 23 -40 8 -40 -6 0 -8 6 -5 13 3 8 -1 14 -9 14 -15 0 -12 -8 28
-59 40 -51 92 -81 149 -84 l48 -3 22 67 c13 37 22 70 21 75 -1 4 3 7 8 7 6 0
10 -9 10 -21 0 -11 5 -17 10 -14 6 4 9 2 8 -3 -5 -17 52 -62 86 -67 57 -10 80
24 88 125 2 25 -14 73 -33 101 -25 36 -27 51 -6 54 10 2 25 12 34 22 8 10 12
13 9 7 -3 -6 8 -21 24 -33 55 -40 88 -137 69 -203 -11 -42 -2 -64 30 -66 40
-3 50 15 47 83 -5 102 -20 134 -99 222 -26 28 -35 31 -85 31 -37 0 -62 -5 -70
-14z m38 -16 c10 -21 10 -21 -3 -5 -13 15 -16 16 -27 2 -7 -9 -15 -13 -18 -10
-4 4 25 33 35 35 1 0 7 -10 13 -22z m-114 -50 c4 -6 3 -8 -3 -5 -12 7 -45 -52
-37 -65 3 -4 1 -8 -5 -8 -6 0 -8 -8 -5 -17 5 -17 5 -17 -9 0 -8 9 -17 17 -20
17 -3 0 -18 11 -32 24 l-26 24 27 21 c29 23 98 29 110 9z m24 -18 c0 -5 -5
-10 -11 -10 -5 0 -7 5 -4 10 3 6 8 10 11 10 2 0 4 -4 4 -10z m45 -40 c8 -16
15 -52 15 -80 0 -43 -3 -50 -19 -50 -35 0 -70 47 -66 90 6 74 42 95 70 40z
m-208 -20 c6 -9 14 -33 17 -55 13 -81 -16 -125 -68 -105 -59 22 -84 81 -51
124 8 10 12 23 8 29 -3 6 -1 7 4 4 6 -4 14 0 17 9 7 19 56 15 73 -6z"/>
</g>
</svg>
