<?xml version="1.0" standalone="no"?>
<!DOCTYPE svg PUBLIC "-//W3C//DTD SVG 20010904//EN"
 "http://www.w3.org/TR/2001/REC-SVG-20010904/DTD/svg10.dtd">
<svg version="1.0" xmlns="http://www.w3.org/2000/svg"
 width="66.000000pt" height="81.000000pt" viewBox="0 0 66.000000 81.000000"
 preserveAspectRatio="xMidYMid meet">
<metadata>
Created by potrace 1.16, written by Peter Selinger 2001-2019
</metadata>
<g transform="translate(0.000000,81.000000) scale(0.100000,-0.100000)"
fill="#000000" stroke="none">
<path d="M351 701 c-7 -5 -22 -6 -32 -4 -11 3 -25 0 -32 -6 -8 -6 -17 -8 -20
-4 -4 3 -7 1 -7 -5 0 -6 4 -13 9 -16 10 -6 23 -97 26 -181 2 -27 3 -59 4 -70
1 -15 9 -21 31 -23 28 -2 30 1 36 38 4 22 11 43 15 46 5 3 9 13 9 22 0 10 9
23 21 30 12 8 18 9 14 3 -3 -6 2 -11 12 -11 18 -1 63 -60 63 -83 0 -26 -41
-77 -77 -95 -21 -11 -56 -19 -79 -19 -125 0 -238 -96 -219 -188 2 -11 4 -24 4
-30 1 -5 5 -4 10 4 8 12 12 12 25 2 24 -20 50 3 34 29 -14 22 6 70 29 70 7 0
13 4 13 9 0 8 44 23 72 25 3 1 10 4 14 8 4 5 20 8 36 8 15 0 28 4 28 9 0 4 8
8 18 8 40 0 51 5 84 36 53 50 69 87 57 130 -5 20 -14 39 -20 42 -5 4 -7 10 -4
15 3 5 -14 24 -36 44 -39 33 -68 40 -85 23 -4 -4 -18 -7 -31 -7 -22 0 -24 3
-21 48 3 41 6 47 24 44 22 -3 35 20 27 46 -5 14 -32 16 -52 3z m24 -410 c3 -5
2 -12 -3 -15 -5 -3 -9 1 -9 9 0 17 3 19 12 6z"/>
<path d="M110 676 c-5 -15 -2 -46 11 -92 10 -38 19 -83 19 -100 0 -17 7 -38
16 -45 14 -11 18 -10 30 6 8 10 14 24 14 29 -1 9 -20 92 -31 134 -2 8 5 19 16
25 11 7 22 15 25 19 3 4 17 5 32 4 22 -3 25 -1 16 14 -6 9 -22 17 -37 18 -14
1 -43 3 -64 6 -32 3 -40 0 -47 -18z"/>
</g>
</svg>
