<?xml version="1.0" standalone="no"?>
<!DOCTYPE svg PUBLIC "-//W3C//DTD SVG 20010904//EN"
 "http://www.w3.org/TR/2001/REC-SVG-20010904/DTD/svg10.dtd">
<svg version="1.0" xmlns="http://www.w3.org/2000/svg"
 width="88.000000pt" height="72.000000pt" viewBox="0 0 88.000000 72.000000"
 preserveAspectRatio="xMidYMid meet">
<metadata>
Created by potrace 1.16, written by Peter Selinger 2001-2019
</metadata>
<g transform="translate(0.000000,72.000000) scale(0.100000,-0.100000)"
fill="#000000" stroke="none">
<path d="M213 589 c-45 -22 -63 -38 -68 -56 -4 -17 -1 -29 7 -34 9 -6 8 -9 -7
-9 -19 -1 -19 -1 -2 -14 10 -8 19 -18 19 -23 1 -11 28 -50 28 -39 0 5 7 3 15
-4 9 -7 37 -13 62 -12 57 0 77 21 69 71 -11 72 -70 92 -64 22 3 -31 0 -36 -21
-39 -46 -7 -71 6 -71 37 0 45 49 76 131 80 62 3 86 -18 100 -92 16 -80 1 -124
-65 -183 -27 -26 -60 -51 -73 -57 -21 -9 -22 -11 -5 -24 15 -13 15 -13 -4 -4
-29 14 -158 -39 -162 -67 -6 -37 21 -45 95 -28 93 20 220 40 266 40 20 0 37 4
37 9 0 5 6 4 14 -2 11 -9 15 -9 19 1 3 10 7 10 17 1 8 -7 19 -9 29 -4 9 5 19
9 24 10 4 1 8 1 10 2 14 6 55 4 51 -3 -3 -4 2 -8 11 -8 9 0 14 3 11 8 -2 4 12
6 33 4 25 -3 41 1 50 12 18 22 6 32 -16 15 -17 -13 -17 -12 0 8 22 26 8 33
-41 22 -25 -5 -35 -4 -39 8 -4 9 -13 12 -27 8 -51 -14 -196 -35 -251 -35 -54
0 -61 2 -62 20 -1 11 3 20 8 20 6 0 7 -5 4 -10 -12 -20 18 -10 49 16 46 39 86
119 86 171 0 23 -5 43 -11 43 -5 0 -7 4 -4 10 10 17 -14 84 -40 113 -23 24
-33 27 -88 27 -50 0 -75 -6 -124 -31z m360 -414 c-3 -9 -8 -14 -10 -11 -3 3
-2 9 2 15 9 16 15 13 8 -4z"/>
<path d="M5 19 c-4 -6 -5 -12 -2 -15 2 -3 7 2 10 11 7 17 1 20 -8 4z"/>
</g>
</svg>
