<?xml version="1.0" standalone="no"?>
<!DOCTYPE svg PUBLIC "-//W3C//DTD SVG 20010904//EN"
 "http://www.w3.org/TR/2001/REC-SVG-20010904/DTD/svg10.dtd">
<svg version="1.0" xmlns="http://www.w3.org/2000/svg"
 width="96.000000pt" height="64.000000pt" viewBox="0 0 96.000000 64.000000"
 preserveAspectRatio="xMidYMid meet">
<metadata>
Created by potrace 1.16, written by Peter Selinger 2001-2019
</metadata>
<g transform="translate(0.000000,64.000000) scale(0.100000,-0.100000)"
fill="#000000" stroke="none">
<path d="M523 525 c-10 -11 -10 -15 0 -18 7 -3 3 -6 -7 -6 -15 -1 -17 -4 -8
-13 15 -15 42 7 42 33 0 22 -10 24 -27 4z"/>
<path d="M173 518 c-2 -5 -12 -8 -22 -8 -10 0 -26 -8 -35 -19 -15 -16 -16 -28
-6 -102 5 -46 10 -117 10 -159 0 -41 3 -85 6 -97 8 -28 44 -39 44 -13 0 10 -6
21 -12 23 -10 4 -10 6 -1 6 6 1 14 -3 18 -9 13 -20 33 1 26 28 -4 15 -6 38 -4
52 5 40 4 120 -3 176 -6 48 -4 52 18 57 12 4 44 7 70 7 56 0 101 15 95 33 -2
6 3 17 10 22 12 9 10 11 -6 12 -13 1 -21 -4 -21 -13 0 -10 -5 -12 -12 -7 -22
13 -167 22 -175 11z m127 -38 c-8 -5 -19 -10 -25 -10 -5 0 -3 5 5 10 8 5 20
10 25 10 6 0 3 -5 -5 -10z"/>
<path d="M616 522 c-3 -5 1 -9 9 -9 8 0 12 4 9 9 -3 4 -7 8 -9 8 -2 0 -6 -4
-9 -8z"/>
<path d="M835 520 c3 -5 11 -10 16 -10 6 0 7 5 4 10 -3 6 -11 10 -16 10 -6 0
-7 -4 -4 -10z"/>
<path d="M405 501 c-3 -2 0 -12 6 -23 6 -10 10 -84 10 -163 0 -84 4 -145 10
-145 5 0 9 -5 9 -11 0 -5 -6 -7 -12 -3 -10 5 -10 4 -1 -6 18 -19 43 -5 36 21
-5 19 -4 20 16 10 11 -7 21 -10 22 -9 6 22 4 55 -5 60 -8 5 -8 8 0 8 7 0 12
41 13 115 3 134 -4 151 -62 150 -21 0 -40 -2 -42 -4z"/>
<path d="M566 502 c-2 -4 -1 -14 4 -21 6 -11 10 -9 19 8 10 17 9 21 -3 21 -8
0 -17 -4 -20 -8z"/>
<path d="M655 499 c-11 -17 -2 -18 25 -4 24 14 24 14 3 15 -12 0 -25 -5 -28
-11z"/>
<path d="M710 501 c0 -6 5 -11 11 -11 5 0 8 -4 5 -8 -3 -5 1 -9 8 -9 19 0 12
31 -7 35 -10 2 -17 -1 -17 -7z"/>
<path d="M775 500 c-3 -5 -3 -10 2 -10 4 0 1 -5 -7 -10 -12 -7 -11 -9 5 -8 11
0 25 -1 32 -3 6 -2 11 1 11 6 1 6 -5 9 -13 7 -7 -1 -16 2 -20 8 -3 6 0 7 9 4
9 -3 16 -1 16 5 0 14 -27 15 -35 1z"/>
<path d="M610 490 c-8 -5 -12 -11 -10 -14 3 -2 14 2 24 10 22 15 10 19 -14 4z"/>
<path d="M292 331 c-8 -24 -7 -32 7 -45 22 -20 47 -20 55 0 3 8 11 12 16 9 7
-4 10 2 8 17 -5 36 -17 48 -48 48 -22 0 -30 -6 -38 -29z"/>
<path d="M603 333 c-18 -7 -16 -50 3 -57 30 -11 54 -7 48 9 -5 11 -2 13 10 9
12 -4 16 0 16 15 0 12 -3 22 -7 23 -21 4 -59 4 -70 1z"/>
</g>
</svg>
