<?xml version="1.0" standalone="no"?>
<!DOCTYPE svg PUBLIC "-//W3C//DTD SVG 20010904//EN"
 "http://www.w3.org/TR/2001/REC-SVG-20010904/DTD/svg10.dtd">
<svg version="1.0" xmlns="http://www.w3.org/2000/svg"
 width="67.000000pt" height="61.000000pt" viewBox="0 0 67.000000 61.000000"
 preserveAspectRatio="xMidYMid meet">
<metadata>
Created by potrace 1.16, written by Peter Selinger 2001-2019
</metadata>
<g transform="translate(0.000000,61.000000) scale(0.100000,-0.100000)"
fill="#000000" stroke="none">
<path d="M447 499 c-18 -10 -76 -17 -198 -22 -73 -3 -119 -25 -119 -57 0 -11
-6 -18 -12 -16 -7 1 -10 1 -5 -1 4 -3 4 -10 1 -15 -4 -7 -2 -8 4 -4 13 8 12
-20 -1 -41 -4 -7 0 -16 10 -22 10 -6 14 -11 9 -11 -5 0 10 -18 34 -40 23 -22
45 -39 48 -39 20 3 32 -2 27 -10 -10 -17 33 -32 70 -25 67 12 82 92 35 183
-26 52 -25 59 5 56 14 -2 23 1 19 6 -3 5 -9 7 -14 4 -5 -3 -11 -1 -15 5 -3 6
4 10 17 10 28 -1 53 -32 63 -80 4 -19 14 -48 22 -63 8 -15 16 -45 18 -66 4
-42 -10 -58 -93 -100 -25 -13 -42 -28 -42 -39 0 -15 2 -15 10 -2 9 13 10 13
10 0 0 -9 3 -11 8 -5 10 14 32 17 32 4 0 -8 4 -9 13 0 8 6 16 8 19 6 9 -9 122
37 136 54 18 24 5 104 -30 184 -29 68 -29 69 -10 83 20 14 22 24 7 57 -8 19
-50 23 -78 6z m-183 -118 c15 -21 29 -55 33 -75 5 -33 3 -36 -17 -36 -13 0
-42 11 -65 25 -52 30 -64 68 -32 103 29 32 50 27 81 -17z"/>
</g>
</svg>
