<?xml version="1.0" standalone="no"?>
<!DOCTYPE svg PUBLIC "-//W3C//DTD SVG 20010904//EN"
 "http://www.w3.org/TR/2001/REC-SVG-20010904/DTD/svg10.dtd">
<svg version="1.0" xmlns="http://www.w3.org/2000/svg"
 width="79.000000pt" height="62.000000pt" viewBox="0 0 79.000000 62.000000"
 preserveAspectRatio="xMidYMid meet">
<metadata>
Created by potrace 1.16, written by Peter Selinger 2001-2019
</metadata>
<g transform="translate(0.000000,62.000000) scale(0.100000,-0.100000)"
fill="#000000" stroke="none">
<path d="M27 609 c7 -7 15 -10 18 -7 3 3 -2 9 -12 12 -14 6 -15 5 -6 -5z"/>
<path d="M126 609 c2 -4 13 -7 24 -6 23 2 17 10 -10 12 -10 1 -17 -2 -14 -6z"/>
<path d="M246 609 c2 -4 13 -7 24 -6 23 2 17 10 -10 12 -10 1 -17 -2 -14 -6z"/>
<path d="M366 609 c2 -4 13 -7 24 -6 23 2 17 10 -10 12 -10 1 -17 -2 -14 -6z"/>
<path d="M486 609 c2 -4 13 -7 24 -6 23 2 17 10 -10 12 -10 1 -17 -2 -14 -6z"/>
<path d="M606 609 c2 -4 13 -7 24 -6 23 2 17 10 -10 12 -10 1 -17 -2 -14 -6z"/>
<path d="M726 608 c3 -4 14 -6 24 -5 31 5 32 13 1 12 -16 0 -27 -3 -25 -7z"/>
<path d="M5 560 c2 -27 10 -33 12 -10 1 11 -2 22 -6 24 -4 3 -7 -4 -6 -14z"/>
<path d="M603 498 c-1 -12 7 -29 18 -39 11 -10 20 -20 20 -23 -2 -18 1 -19 9
-1 14 33 11 72 -6 79 -28 11 -40 6 -41 -16z"/>
<path d="M339 494 c6 -3 7 -12 4 -20 -3 -8 3 -25 14 -37 23 -25 53 -108 53
-147 0 -28 -40 -95 -69 -117 -20 -14 -28 -8 -12 11 31 37 29 108 -4 158 -37
56 -53 39 -35 -38 12 -51 12 -59 -5 -90 -12 -22 -25 -34 -39 -34 -40 0 -108
62 -98 89 4 10 1 12 -9 6 -11 -6 -12 -5 -1 6 6 7 12 28 12 47 0 33 18 62 40
62 6 0 8 5 5 10 -3 6 2 10 13 10 10 0 26 8 36 18 9 11 30 19 47 20 39 1 44 6
29 29 -8 12 -10 13 -7 2 3 -9 -1 -16 -9 -16 -7 0 -11 5 -7 10 3 5 -4 4 -16 -2
-18 -10 -20 -9 -14 6 6 16 5 16 -10 4 -9 -7 -17 -10 -17 -7 0 14 -60 -29 -66
-46 -3 -10 -9 -16 -13 -14 -4 3 -19 -15 -35 -40 -24 -38 -27 -50 -20 -82 4
-20 8 -40 8 -44 1 -4 10 -18 21 -30 11 -13 19 -26 17 -30 -1 -4 6 -4 15 -1 11
4 14 3 9 -5 -6 -11 12 -17 37 -13 5 1 6 -3 2 -9 -3 -6 -11 -8 -16 -5 -5 4 -9
4 -9 1 0 -3 14 -13 31 -21 24 -13 37 -14 60 -6 25 9 29 8 29 -9 0 -10 3 -21 8
-23 12 -6 114 18 106 25 -4 5 -2 8 5 8 7 0 9 5 6 10 -4 6 -3 10 2 9 4 -1 10
-1 13 1 3 1 16 4 29 6 37 7 38 14 3 15 -52 2 -55 3 -58 22 -1 9 2 15 7 11 5
-3 9 4 9 16 0 13 4 19 11 14 8 -5 9 -2 1 12 -8 14 -6 21 6 31 16 11 16 12 1
13 -20 0 -32 37 -15 44 7 3 6 8 -4 15 -8 6 -11 11 -6 11 6 0 1 7 -10 15 -15
12 -15 14 -2 9 15 -5 16 -2 8 26 -11 37 -37 80 -48 80 -5 0 -14 -6 -21 -12
-10 -11 -12 -10 -9 1 2 7 -3 15 -10 17 -7 1 -8 0 -3 -2z m-205 -158 c-3 -9
-10 -16 -15 -16 -5 0 -4 9 3 20 14 22 21 20 12 -4z"/>
<path d="M5 440 c2 -27 10 -33 12 -10 1 11 -2 22 -6 24 -4 3 -7 -4 -6 -14z"/>
<path d="M624 364 c-1 -30 4 -54 9 -54 6 0 7 -3 4 -7 -4 -3 0 -11 8 -17 11 -8
12 -15 4 -26 -10 -13 -10 -13 -6 1 3 9 -1 16 -8 16 -10 0 -11 -5 -4 -18 12
-24 11 -32 -3 -23 -7 4 -8 3 -4 -5 4 -6 2 -27 -5 -45 -15 -41 0 -68 33 -63 36
6 41 39 21 137 -2 14 -4 40 -4 58 2 36 -5 40 -26 15 -9 -11 -9 -7 2 10 9 16
14 31 11 35 -3 3 -6 0 -6 -7 0 -7 -4 -9 -10 -6 -16 10 -12 35 5 29 8 -4 15 -2
15 4 0 5 -8 12 -18 14 -15 4 -18 -2 -18 -48z"/>
<path d="M5 320 c2 -27 10 -33 12 -10 1 11 -2 22 -6 24 -4 3 -7 -4 -6 -14z"/>
<path d="M5 200 c2 -27 10 -33 12 -10 1 11 -2 22 -6 24 -4 3 -7 -4 -6 -14z"/>
<path d="M568 143 c7 -3 16 -2 19 1 4 3 -2 6 -13 5 -11 0 -14 -3 -6 -6z"/>
<path d="M5 80 c2 -27 10 -33 12 -10 1 11 -2 22 -6 24 -4 3 -7 -4 -6 -14z"/>
<path d="M776 13 c-6 -14 -5 -15 5 -6 7 7 10 15 7 18 -3 3 -9 -2 -12 -12z"/>
</g>
</svg>
