<?xml version="1.0" standalone="no"?>
<!DOCTYPE svg PUBLIC "-//W3C//DTD SVG 20010904//EN"
 "http://www.w3.org/TR/2001/REC-SVG-20010904/DTD/svg10.dtd">
<svg version="1.0" xmlns="http://www.w3.org/2000/svg"
 width="67.000000pt" height="52.000000pt" viewBox="0 0 67.000000 52.000000"
 preserveAspectRatio="xMidYMid meet">
<metadata>
Created by potrace 1.16, written by Peter Selinger 2001-2019
</metadata>
<g transform="translate(0.000000,52.000000) scale(0.100000,-0.100000)"
fill="#000000" stroke="none">
<path d="M5 479 c-4 -6 -5 -12 -2 -15 2 -3 7 2 10 11 7 17 1 20 -8 4z"/>
<path d="M183 407 c-69 -9 -72 -11 -79 -40 -3 -16 -2 -32 3 -36 23 -16 52 -78
46 -100 -7 -27 30 -63 56 -53 9 3 12 1 8 -5 -11 -17 3 -43 22 -43 13 0 13 2 2
9 -9 6 -10 11 -2 15 12 8 32 -33 23 -48 -3 -5 0 -6 6 -2 11 7 6 31 -11 54 -8
10 -13 10 -25 0 -13 -11 -15 -10 -10 3 4 9 2 22 -3 28 -5 6 -6 9 -3 6 4 -2 15
7 26 20 11 14 26 25 33 25 7 0 20 7 29 15 9 10 17 11 21 5 4 -6 10 -8 15 -5 5
3 14 -3 19 -14 19 -35 11 -101 -12 -101 -6 0 -19 -8 -30 -18 -19 -16 -20 -16
-14 0 4 12 1 18 -9 18 -12 0 -13 -4 -3 -21 8 -15 14 -18 22 -10 13 13 30 15
22 2 -3 -6 4 -9 15 -8 11 1 20 5 20 10 0 4 4 6 8 3 27 -17 54 51 46 118 l-6
53 63 -2 c64 -2 89 6 89 30 0 19 -37 25 -51 9 -6 -8 -15 -12 -19 -9 -5 3 -11
-1 -13 -7 -4 -10 -8 -9 -16 2 -6 8 -11 10 -11 4 0 -18 -49 -23 -66 -7 -23 23
-18 61 9 65 14 2 23 11 25 26 3 20 -1 22 -37 22 -27 0 -44 -6 -51 -17 -8 -13
-10 -14 -7 -3 3 11 -2 16 -17 17 -11 0 -16 -1 -9 -4 7 -2 9 -11 6 -19 -3 -8
-1 -14 3 -14 5 0 10 -18 10 -39 2 -36 -1 -40 -28 -46 -16 -4 -32 -4 -35 -1 -3
3 -18 -1 -34 -9 -27 -14 -28 -14 -50 21 -20 33 -21 37 -5 46 9 5 13 14 10 20
-5 7 -2 8 7 2 22 -14 37 -13 43 2 3 8 13 14 21 14 10 0 13 -5 9 -12 -5 -8 -2
-9 10 -5 10 4 20 7 22 7 2 0 4 5 4 10 0 6 -6 10 -12 9 -30 -4 -41 4 -18 11 34
11 6 10 -87 -3z"/>
</g>
</svg>
