<?xml version="1.0" standalone="no"?>
<!DOCTYPE svg PUBLIC "-//W3C//DTD SVG 20010904//EN"
 "http://www.w3.org/TR/2001/REC-SVG-20010904/DTD/svg10.dtd">
<svg version="1.0" xmlns="http://www.w3.org/2000/svg"
 width="82.000000pt" height="56.000000pt" viewBox="0 0 82.000000 56.000000"
 preserveAspectRatio="xMidYMid meet">
<metadata>
Created by potrace 1.16, written by Peter Selinger 2001-2019
</metadata>
<g transform="translate(0.000000,56.000000) scale(0.100000,-0.100000)"
fill="#000000" stroke="none">
<path d="M800 551 c0 -6 4 -13 10 -16 6 -3 7 1 4 9 -7 18 -14 21 -14 7z"/>
<path d="M572 444 c-12 -8 -22 -13 -22 -10 0 3 -11 1 -25 -4 -18 -7 -28 -5
-39 5 -23 23 -82 19 -100 -7 -11 -15 -12 -26 -5 -39 11 -21 20 -100 23 -186 1
-58 1 -58 31 -58 24 1 30 5 28 20 -2 11 -6 66 -9 123 -6 98 -6 102 14 102 11
0 23 6 25 13 4 9 6 9 6 0 1 -7 8 -10 16 -7 8 4 15 2 15 -4 0 -5 11 -13 24 -16
20 -5 25 -14 30 -53 4 -27 7 -66 8 -88 0 -22 5 -50 9 -62 9 -24 39 -32 39 -10
0 8 4 7 11 -3 8 -11 9 -5 5 25 -14 86 -19 228 -8 222 12 -8 72 11 72 23 0 4
-7 13 -15 20 -12 10 -21 10 -40 2 -15 -7 -26 -8 -30 -2 -9 15 -38 12 -63 -6z"/>
<path d="M177 412 c-9 -2 -17 -8 -17 -13 0 -5 -5 -9 -11 -9 -6 0 -17 -6 -25
-14 -18 -18 -19 -50 -1 -40 8 5 8 3 -2 -9 -7 -9 -17 -15 -21 -12 -4 2 -5 -8
-2 -23 l6 -27 7 25 c6 23 7 23 8 3 1 -12 5 -24 11 -28 5 -3 6 -13 3 -23 -3 -9
-3 -14 2 -10 4 4 14 3 22 -3 18 -15 17 2 -2 27 -18 23 -20 88 -2 101 6 6 24
13 38 16 23 6 29 1 52 -46 15 -29 27 -66 27 -82 0 -75 -24 -94 -67 -53 -13 12
-23 16 -23 10 0 -6 5 -14 11 -18 6 -3 9 -14 6 -24 -3 -11 5 -27 21 -41 l26
-22 32 37 c19 21 34 53 38 76 8 49 -2 120 -20 140 -7 8 -16 27 -19 43 -7 24
-11 27 -44 25 -21 -2 -45 -4 -54 -6z m43 -16 c0 -2 -7 -7 -16 -10 -8 -3 -12
-2 -9 4 6 10 25 14 25 6z"/>
<path d="M155 180 c3 -5 11 -10 16 -10 6 0 7 5 4 10 -3 6 -11 10 -16 10 -6 0
-7 -4 -4 -10z"/>
</g>
</svg>
