<?xml version="1.0" standalone="no"?>
<!DOCTYPE svg PUBLIC "-//W3C//DTD SVG 20010904//EN"
 "http://www.w3.org/TR/2001/REC-SVG-20010904/DTD/svg10.dtd">
<svg version="1.0" xmlns="http://www.w3.org/2000/svg"
 width="62.000000pt" height="53.000000pt" viewBox="0 0 62.000000 53.000000"
 preserveAspectRatio="xMidYMid meet">
<metadata>
Created by potrace 1.16, written by Peter Selinger 2001-2019
</metadata>
<g transform="translate(0.000000,53.000000) scale(0.100000,-0.100000)"
fill="#000000" stroke="none">
<path d="M478 425 c-3 -3 -42 -10 -87 -15 -45 -5 -87 -13 -94 -17 -7 -4 -16
-8 -22 -8 -62 -5 -111 -21 -136 -46 -33 -32 -35 -41 -15 -59 8 -6 12 -18 9
-26 -3 -8 0 -14 7 -14 6 0 9 -4 5 -10 -3 -5 14 -29 39 -54 24 -25 41 -48 38
-51 -4 -3 2 -3 12 1 13 5 17 4 13 -3 -4 -6 0 -13 8 -17 47 -18 111 61 101 124
-20 126 -21 115 14 117 18 1 30 0 28 -3 -3 -3 -2 -22 3 -42 5 -20 11 -57 15
-82 3 -25 10 -63 16 -85 10 -38 10 -39 22 -16 11 20 14 21 28 8 9 -9 20 -12
28 -7 10 6 9 28 -3 115 -15 100 -15 109 0 120 14 11 15 16 4 44 -13 30 -22 37
-33 26z m-204 -147 c11 -44 1 -88 -20 -88 -22 0 -74 58 -74 82 0 12 12 24 33
33 42 19 50 15 61 -27z"/>
<path d="M600 10 c-9 -6 -10 -10 -3 -10 6 0 15 5 18 10 8 12 4 12 -15 0z"/>
</g>
</svg>
