<?xml version="1.0" standalone="no"?>
<!DOCTYPE svg PUBLIC "-//W3C//DTD SVG 20010904//EN"
 "http://www.w3.org/TR/2001/REC-SVG-20010904/DTD/svg10.dtd">
<svg version="1.0" xmlns="http://www.w3.org/2000/svg"
 width="108.000000pt" height="53.000000pt" viewBox="0 0 108.000000 53.000000"
 preserveAspectRatio="xMidYMid meet">
<metadata>
Created by potrace 1.16, written by Peter Selinger 2001-2019
</metadata>
<g transform="translate(0.000000,53.000000) scale(0.100000,-0.100000)"
fill="#000000" stroke="none">
<path d="M368 422 c-16 -2 -28 -8 -28 -14 0 -7 -5 -6 -14 1 -12 10 -17 8 -25
-8 -16 -28 -14 -34 9 -28 11 3 20 1 20 -5 0 -6 13 -8 28 -6 22 3 28 0 28 -14
0 -10 -4 -18 -8 -18 -4 0 -8 -7 -8 -16 0 -8 -5 -12 -10 -9 -6 4 -7 11 -4 17 4
7 2 8 -5 4 -6 -4 -9 -18 -7 -32 6 -32 -8 -23 -24 16 -7 16 -17 30 -22 30 -5 0
-7 4 -4 9 3 5 -1 14 -9 21 -8 7 -13 16 -10 20 3 4 -2 11 -11 14 -9 3 -12 2 -9
-4 4 -6 9 -27 11 -48 2 -20 13 -58 24 -84 19 -44 19 -51 6 -77 -17 -32 -44
-43 -70 -29 -9 5 -21 6 -26 3 -6 -3 -10 1 -10 9 0 9 -4 16 -9 16 -23 0 -35
104 -15 121 8 6 11 16 7 22 -3 5 -1 7 5 3 6 -3 13 -2 17 3 3 6 12 8 20 4 8 -3
15 0 15 7 0 6 4 9 8 6 4 -2 9 4 9 15 2 24 -14 25 -22 0 -4 -12 -12 -17 -28
-14 -26 5 -55 -22 -62 -57 -6 -32 -15 -38 -15 -9 -1 20 -2 21 -10 8 -24 -41
78 -200 117 -185 8 3 11 1 8 -4 -3 -6 3 -10 15 -10 34 0 109 90 101 123 -1 5
3 6 9 2 5 -3 10 -13 10 -21 0 -8 5 -14 10 -14 6 0 10 -6 10 -13 0 -24 46 -58
96 -71 43 -11 51 -11 64 3 24 24 52 71 43 71 -5 0 -1 5 7 10 11 7 23 2 45 -18
16 -15 23 -19 16 -9 -19 25 -12 26 29 5 30 -15 28 -25 -5 -18 -5 1 -6 -2 -2
-7 5 -4 12 -8 15 -9 4 0 23 -8 41 -16 19 -9 40 -14 46 -11 23 8 65 103 69 153
2 19 -22 69 -41 88 -8 8 -12 20 -9 28 6 16 -38 31 -79 27 -59 -6 -63 -7 -57
-18 3 -5 -2 -3 -12 5 -10 8 -30 15 -45 16 -14 1 -26 2 -26 3 0 1 -38 3 -85 4
-47 2 -89 5 -95 8 -5 2 -22 3 -37 1z m266 -53 c-2 -4 16 -6 41 -5 37 2 42 0
33 -11 -6 -8 -7 -13 -2 -12 5 1 15 1 21 0 17 -1 73 -60 73 -76 0 -16 -30 -75
-38 -76 -49 -6 -70 -4 -88 7 -16 10 -24 10 -33 1 -10 -9 -10 -6 -2 15 6 16 6
30 1 33 -5 3 -8 27 -8 53 1 47 -6 72 -20 72 -4 0 -7 -18 -7 -40 0 -23 -3 -36
-8 -31 -5 5 -9 21 -9 35 0 14 -4 26 -9 26 -5 0 -9 5 -9 10 0 6 15 10 34 8 19
-1 33 -5 30 -9z m-165 -23 c-2 -2 -14 -9 -26 -15 -18 -9 -22 -9 -18 2 3 7 15
13 26 14 12 1 20 1 18 -1z m49 -29 c6 -7 14 -32 18 -56 14 -87 -43 -121 -101
-61 -16 17 -25 30 -21 30 5 0 3 6 -3 14 -24 29 22 85 70 86 15 0 31 -6 37 -13z
m-371 -99 c-3 -8 -6 -5 -6 6 -1 11 2 17 5 13 3 -3 4 -12 1 -19z m138 -88 c-3
-5 -12 -10 -18 -10 -7 0 -6 4 3 10 19 12 23 12 15 0z"/>
<path d="M640 329 c0 -5 5 -7 10 -4 6 3 10 8 10 11 0 2 -4 4 -10 4 -5 0 -10
-5 -10 -11z"/>
<path d="M926 422 c-2 -4 -20 -7 -38 -7 -19 1 -40 -4 -46 -12 -9 -9 -10 -13
-1 -13 7 0 9 -10 7 -25 -3 -13 -1 -22 3 -19 13 8 69 -86 69 -115 0 -15 4 -32
9 -40 8 -12 12 -12 27 0 11 8 20 20 22 27 3 16 -18 104 -29 118 -5 6 0 17 12
28 12 10 18 24 15 32 -3 9 -6 20 -6 25 0 11 -37 12 -44 1z"/>
</g>
</svg>
