<?xml version="1.0" standalone="no"?>
<!DOCTYPE svg PUBLIC "-//W3C//DTD SVG 20010904//EN"
 "http://www.w3.org/TR/2001/REC-SVG-20010904/DTD/svg10.dtd">
<svg version="1.0" xmlns="http://www.w3.org/2000/svg"
 width="80.000000pt" height="67.000000pt" viewBox="0 0 80.000000 67.000000"
 preserveAspectRatio="xMidYMid meet">
<metadata>
Created by potrace 1.16, written by Peter Selinger 2001-2019
</metadata>
<g transform="translate(0.000000,67.000000) scale(0.100000,-0.100000)"
fill="#000000" stroke="none">
<path d="M120 666 c0 -2 7 -7 16 -10 8 -3 12 -2 9 4 -6 10 -25 14 -25 6z"/>
<path d="M240 666 c0 -2 7 -7 16 -10 8 -3 12 -2 9 4 -6 10 -25 14 -25 6z"/>
<path d="M131 538 c-12 -38 -26 -174 -24 -235 2 -65 31 -143 57 -153 25 -9 91
-3 119 12 14 7 20 3 32 -26 8 -19 20 -33 27 -32 34 7 104 29 113 36 6 4 18 6
28 5 9 -2 17 3 17 11 0 8 5 14 11 14 5 0 8 -4 4 -9 -3 -5 -1 -13 5 -16 6 -4
10 -3 9 2 -3 18 2 27 9 16 4 -6 25 -12 47 -14 22 -1 45 -6 51 -11 6 -4 20 0
33 8 18 13 21 24 19 60 -2 24 -7 44 -13 44 -6 0 -6 3 0 8 6 4 12 20 13 36 2
26 0 27 -16 15 -11 -9 -10 -6 4 11 17 20 21 40 22 97 2 64 0 74 -20 88 -21 14
-24 14 -35 -1 -8 -11 -9 -23 -3 -34 5 -10 6 -20 3 -24 -3 -3 -2 -6 4 -6 5 0 9
-13 8 -30 -1 -22 3 -30 14 -30 10 0 17 -8 17 -21 0 -19 -1 -19 -13 -3 -11 16
-14 14 -20 -17 -4 -19 -6 -37 -5 -41 1 -5 -2 -8 -8 -8 -5 0 -10 -11 -10 -24 0
-34 -10 -56 -26 -56 -7 0 -18 -8 -23 -17 -6 -10 -11 -13 -11 -7 0 10 -30 11
-99 2 -3 0 -23 0 -44 1 l-37 1 5 43 c7 53 16 155 19 230 3 62 -11 91 -43 85
-12 -3 -17 -20 -22 -78 -7 -81 -12 -103 -31 -159 -7 -20 -12 -39 -13 -43 -1
-20 -48 -58 -72 -58 -42 0 -55 15 -57 63 0 9 -3 17 -6 17 -7 0 -6 28 5 135 14
127 12 140 -12 143 -16 2 -23 -4 -32 -30z m553 -134 c3 -8 2 -12 -4 -9 -6 3
-10 10 -10 16 0 14 7 11 14 -7z m-107 -240 c-3 -3 -12 -4 -19 -1 -8 3 -5 6 6
6 11 1 17 -2 13 -5z"/>
<path d="M0 501 c0 -6 4 -13 10 -16 6 -3 7 1 4 9 -7 18 -14 21 -14 7z"/>
</g>
</svg>
