<?xml version="1.0" standalone="no"?>
<!DOCTYPE svg PUBLIC "-//W3C//DTD SVG 20010904//EN"
 "http://www.w3.org/TR/2001/REC-SVG-20010904/DTD/svg10.dtd">
<svg version="1.0" xmlns="http://www.w3.org/2000/svg"
 width="51.000000pt" height="52.000000pt" viewBox="0 0 51.000000 52.000000"
 preserveAspectRatio="xMidYMid meet">
<metadata>
Created by potrace 1.16, written by Peter Selinger 2001-2019
</metadata>
<g transform="translate(0.000000,52.000000) scale(0.100000,-0.100000)"
fill="#000000" stroke="none">
<path d="M14 512 c3 -5 0 -13 -6 -15 -9 -4 -10 -6 -1 -6 17 -1 25 16 12 25 -7
4 -9 3 -5 -4z"/>
<path d="M379 411 c12 -8 13 -12 1 -26 -11 -14 -11 -16 0 -13 8 2 20 8 26 13
15 12 -1 35 -25 35 -13 0 -14 -2 -2 -9z"/>
<path d="M289 401 c-1 -3 -1 -10 1 -16 1 -5 -4 -4 -11 3 -15 14 -33 17 -25 4
6 -10 -26 -8 -91 3 -35 6 -43 4 -52 -12 -5 -11 -7 -32 -3 -47 4 -15 3 -62 -2
-106 -9 -77 -9 -80 15 -104 22 -21 27 -23 43 -10 17 12 20 28 21 106 1 89 2
92 27 100 14 5 28 18 31 28 5 20 27 28 27 10 0 -5 -4 -10 -10 -10 -5 0 -10 -5
-10 -11 0 -5 4 -8 9 -4 13 7 20 -19 22 -85 3 -78 8 -90 35 -90 27 0 44 26 44
70 0 22 -4 29 -12 24 -10 -6 -10 -4 -2 7 14 18 10 112 -5 117 -6 2 -9 7 -6 12
3 4 -6 10 -20 12 -14 3 -26 2 -26 -1z m41 -101 c0 -5 -2 -10 -4 -10 -3 0 -8 5
-11 10 -3 6 -1 10 4 10 6 0 11 -4 11 -10z m-9 -53 c-10 -9 -11 -8 -5 6 3 10 9
15 12 12 3 -3 0 -11 -7 -18z"/>
</g>
</svg>
