<?xml version="1.0" standalone="no"?>
<!DOCTYPE svg PUBLIC "-//W3C//DTD SVG 20010904//EN"
 "http://www.w3.org/TR/2001/REC-SVG-20010904/DTD/svg10.dtd">
<svg version="1.0" xmlns="http://www.w3.org/2000/svg"
 width="78.000000pt" height="57.000000pt" viewBox="0 0 78.000000 57.000000"
 preserveAspectRatio="xMidYMid meet">
<metadata>
Created by potrace 1.16, written by Peter Selinger 2001-2019
</metadata>
<g transform="translate(0.000000,57.000000) scale(0.100000,-0.100000)"
fill="#000000" stroke="none">
<path d="M9 568 c-4 -10 -3 -116 1 -112 5 6 8 114 3 114 -2 0 -3 -1 -4 -2z"/>
<path d="M30 561 c0 -5 11 -8 25 -8 30 0 28 6 -4 12 -11 2 -21 0 -21 -4z"/>
<path d="M90 558 c0 -4 9 -7 20 -5 29 5 33 13 5 13 -14 0 -25 -4 -25 -8z"/>
<path d="M150 558 c0 -4 9 -7 20 -5 29 5 33 13 5 13 -14 0 -25 -4 -25 -8z"/>
<path d="M210 560 c0 -3 92 -5 204 -5 113 0 202 2 200 5 -7 6 -404 7 -404 0z"/>
<path d="M630 561 c0 -5 11 -8 25 -8 30 0 28 6 -4 12 -11 2 -21 0 -21 -4z"/>
<path d="M690 558 c0 -4 16 -5 35 -4 25 3 38 -1 45 -13 8 -14 9 -13 7 4 -1 17
-8 21 -44 21 -24 0 -43 -4 -43 -8z"/>
<path d="M592 464 c-21 -15 -22 -23 -4 -65 9 -24 22 -99 27 -159 2 -27 15 -70
21 -70 2 0 13 9 24 20 21 21 22 87 1 83 -6 -2 -11 4 -11 12 0 8 -5 15 -12 15
-6 0 -8 3 -5 6 4 4 13 1 22 -6 13 -10 15 -9 15 7 0 11 -3 23 -7 27 -10 10 -12
96 -2 102 11 6 -8 27 -32 36 -9 4 -26 0 -37 -8z m45 -129 c0 -8 -4 -15 -9 -15
-10 0 -11 14 -1 23 9 10 10 9 10 -8z"/>
<path d="M418 455 c-3 -4 -52 -13 -74 -14 -7 -1 -14 -8 -17 -15 -4 -10 -1 -13
9 -9 8 3 14 -1 14 -11 0 -9 8 -16 20 -16 12 0 20 -7 20 -16 0 -9 9 -47 20 -85
11 -37 22 -85 24 -106 3 -21 5 -40 6 -43 1 -3 2 -8 1 -13 -1 -10 17 -9 39 3
17 9 17 14 4 82 -8 40 -19 94 -26 120 -13 52 -9 61 24 63 21 2 39 45 18 45 -6
0 -10 -5 -10 -12 0 -7 -5 -6 -12 4 -12 14 -53 30 -60 23z m33 -162 c13 -16 12
-17 -3 -4 -17 13 -22 21 -14 21 2 0 10 -8 17 -17z"/>
<path d="M5 419 c6 -32 13 -34 13 -4 0 14 -4 25 -9 25 -4 0 -6 -10 -4 -21z"/>
<path d="M214 412 c-6 -4 -13 -15 -17 -25 -6 -15 -10 -16 -27 -5 -16 11 -22
10 -34 -7 -9 -11 -16 -26 -16 -33 0 -7 -4 -10 -10 -7 -14 9 -12 -18 3 -34 10
-11 9 -12 -2 -6 -10 6 -12 4 -6 -6 5 -7 10 -26 12 -42 4 -35 39 -87 59 -87 8
0 12 -4 9 -10 -3 -5 2 -10 13 -10 10 0 27 -9 37 -20 35 -39 83 -20 101 40 14
47 -7 154 -36 185 -15 16 -18 25 -10 30 8 5 6 13 -6 26 -17 19 -50 25 -70 11z
m14 -75 c15 -1 30 -17 49 -53 23 -43 26 -57 18 -81 -8 -23 -17 -29 -46 -31
-47 -4 -86 27 -95 76 -4 20 -12 43 -18 51 -8 11 -8 13 0 8 11 -6 24 12 23 30
-1 12 35 21 42 11 3 -5 15 -10 27 -11z"/>
<path d="M318 393 c7 -3 16 -2 19 1 4 3 -2 6 -13 5 -11 0 -14 -3 -6 -6z"/>
<path d="M5 196 c0 -102 2 -182 5 -180 7 7 7 364 0 364 -3 0 -5 -83 -5 -184z"/>
<path d="M771 214 c0 -11 3 -14 6 -6 3 7 2 16 -1 19 -3 4 -6 -2 -5 -13z"/>
<path d="M765 10 c-3 -5 -1 -10 4 -10 6 0 11 5 11 10 0 6 -2 10 -4 10 -3 0 -8
-4 -11 -10z"/>
</g>
</svg>
