<?xml version="1.0" standalone="no"?>
<!DOCTYPE svg PUBLIC "-//W3C//DTD SVG 20010904//EN"
 "http://www.w3.org/TR/2001/REC-SVG-20010904/DTD/svg10.dtd">
<svg version="1.0" xmlns="http://www.w3.org/2000/svg"
 width="94.000000pt" height="78.000000pt" viewBox="0 0 94.000000 78.000000"
 preserveAspectRatio="xMidYMid meet">
<metadata>
Created by potrace 1.16, written by Peter Selinger 2001-2019
</metadata>
<g transform="translate(0.000000,78.000000) scale(0.100000,-0.100000)"
fill="#000000" stroke="none">
<path d="M452 678 c-6 -6 -49 -12 -96 -12 -59 -1 -90 -7 -103 -17 -10 -8 -30
-21 -44 -28 -30 -15 -45 -40 -53 -88 -7 -44 50 -120 97 -127 52 -8 67 -4 97
25 38 39 45 81 20 137 -15 32 -17 48 -9 53 13 8 100 6 114 -2 6 -4 24 -10 41
-13 17 -4 42 -19 56 -34 26 -28 50 -103 43 -137 -2 -11 -4 -24 -4 -29 -1 -5
-36 -6 -79 -3 -84 6 -150 -4 -163 -25 -7 -11 -12 -11 -30 0 -11 8 -18 9 -14 3
6 -11 -26 -16 -68 -11 -10 1 -38 -10 -62 -24 -24 -14 -50 -26 -59 -26 -19 0
-36 -30 -36 -64 0 -35 55 -90 120 -119 74 -33 82 -35 105 -27 11 4 34 4 53 -1
27 -6 47 0 110 31 98 47 163 117 178 188 9 44 33 54 75 32 17 -10 19 -19 14
-83 -3 -40 -8 -90 -11 -113 -6 -51 10 -69 46 -51 24 12 25 18 27 102 1 50 5
104 9 120 8 34 8 70 1 174 -5 76 -15 93 -52 89 -18 -3 -20 -11 -20 -87 0 -84
0 -85 -28 -92 -33 -9 -41 3 -52 76 -10 68 -28 99 -78 133 -55 38 -131 64 -145
50z m-144 -124 c17 -55 0 -84 -48 -84 -15 1 -32 11 -43 25 -17 24 -17 27 -1
54 18 31 51 51 70 44 6 -2 16 -20 22 -39z m302 -189 c0 -2 -8 -23 -19 -47 -24
-56 -50 -79 -139 -123 -65 -32 -78 -35 -130 -30 -74 7 -90 12 -129 41 -61 46
-51 84 30 110 73 24 77 26 77 33 0 3 10 7 23 7 109 6 243 16 245 19 4 3 42 -6
42 -10z"/>
</g>
</svg>
