<?xml version="1.0" standalone="no"?>
<!DOCTYPE svg PUBLIC "-//W3C//DTD SVG 20010904//EN"
 "http://www.w3.org/TR/2001/REC-SVG-20010904/DTD/svg10.dtd">
<svg version="1.0" xmlns="http://www.w3.org/2000/svg"
 width="47.000000pt" height="43.000000pt" viewBox="0 0 47.000000 43.000000"
 preserveAspectRatio="xMidYMid meet">
<metadata>
Created by potrace 1.16, written by Peter Selinger 2001-2019
</metadata>
<g transform="translate(0.000000,43.000000) scale(0.100000,-0.100000)"
fill="#000000" stroke="none">
<path d="M10 409 c-7 -11 -10 -23 -7 -25 2 -2 9 7 15 21 14 30 7 33 -8 4z"/>
<path d="M180 307 c-85 -49 -94 -80 -51 -166 22 -41 47 -53 57 -26 3 8 -1 29
-10 46 -20 39 -20 63 -3 78 11 8 16 5 25 -14 6 -14 16 -25 22 -25 6 0 9 -4 5
-9 -10 -17 34 -32 78 -27 23 3 45 5 48 5 14 2 19 72 9 110 -11 42 -9 41 -107
55 -12 2 -45 -10 -73 -27z m136 -35 c15 -24 0 -62 -25 -62 -45 0 -59 48 -22
76 18 14 33 10 47 -14z"/>
</g>
</svg>
