<?xml version="1.0" standalone="no"?>
<!DOCTYPE svg PUBLIC "-//W3C//DTD SVG 20010904//EN"
 "http://www.w3.org/TR/2001/REC-SVG-20010904/DTD/svg10.dtd">
<svg version="1.0" xmlns="http://www.w3.org/2000/svg"
 width="88.000000pt" height="61.000000pt" viewBox="0 0 88.000000 61.000000"
 preserveAspectRatio="xMidYMid meet">
<metadata>
Created by potrace 1.16, written by Peter Selinger 2001-2019
</metadata>
<g transform="translate(0.000000,61.000000) scale(0.100000,-0.100000)"
fill="#000000" stroke="none">
<path d="M5 569 c-4 -6 -5 -12 -2 -15 2 -3 7 2 10 11 7 17 1 20 -8 4z"/>
<path d="M130 487 c0 -10 -7 -20 -15 -23 -8 -4 -12 -11 -9 -16 4 -6 10 -5 15
3 5 9 9 -13 10 -56 3 -197 11 -228 51 -217 18 4 22 25 17 92 -1 19 -2 64 -2
100 l-1 65 50 0 49 0 3 -100 c2 -86 5 -102 23 -117 30 -25 46 -13 53 42 7 50
20 63 66 65 26 1 60 -28 60 -52 0 -20 -25 -65 -46 -85 -11 -9 -35 -19 -54 -23
-30 -5 -36 -11 -36 -31 0 -13 2 -25 6 -25 26 -6 50 -4 50 4 0 6 3 8 6 4 3 -3
18 -1 32 4 14 6 50 12 79 15 40 4 53 3 53 -8 0 -8 3 -9 8 -3 4 6 24 11 44 12
27 1 38 -3 41 -15 4 -15 5 -15 6 1 1 17 21 25 21 8 0 -13 35 -20 54 -9 9 5 16
17 16 27 0 26 -28 91 -40 91 -5 0 -7 7 -4 15 4 8 1 21 -5 29 -6 7 -8 16 -4 19
3 4 0 7 -8 8 -8 0 -6 4 6 9 19 8 19 8 -5 18 -15 6 -18 11 -9 11 9 1 16 7 16
14 0 6 4 37 8 69 6 52 5 57 -15 63 -32 10 -59 -17 -40 -40 11 -13 11 -21 2
-36 -12 -19 -6 -24 21 -20 12 2 8 -17 -5 -21 -6 -2 -13 -28 -14 -56 -2 -36 0
-51 7 -46 7 4 9 0 5 -12 -3 -11 -2 -34 3 -52 l10 -32 -39 0 c-21 0 -41 -6 -43
-12 -4 -10 -6 -10 -6 0 -1 6 -6 12 -12 12 -5 0 -7 -5 -3 -11 4 -7 1 -10 -7 -7
-8 3 -22 1 -31 -4 -14 -6 -18 -5 -18 7 0 15 -1 15 -16 1 -21 -21 -30 -20 -13
1 12 15 12 16 -6 10 -18 -6 -17 -5 3 13 14 11 20 24 16 31 -4 7 -3 9 4 5 9 -5
10 20 3 69 -4 31 -85 93 -96 74 -5 -6 -12 -6 -23 3 -9 7 -13 8 -9 2 4 -7 -2
-11 -18 -11 -14 0 -26 2 -26 6 -8 41 -7 76 1 86 5 6 6 16 2 21 -4 5 4 0 17
-11 15 -12 21 -14 16 -5 -7 12 -6 13 6 4 11 -9 18 -7 32 6 16 15 16 19 2 30
-9 7 -26 10 -42 6 -34 -8 -23 -8 -160 -4 -103 3 -113 2 -113 -15z m590 -11 c0
-2 -7 -7 -16 -10 -8 -3 -12 -2 -9 4 6 10 25 14 25 6z"/>
<path d="M0 201 c0 -6 4 -13 10 -16 6 -3 7 1 4 9 -7 18 -14 21 -14 7z"/>
</g>
</svg>
