<?xml version="1.0" standalone="no"?>
<!DOCTYPE svg PUBLIC "-//W3C//DTD SVG 20010904//EN"
 "http://www.w3.org/TR/2001/REC-SVG-20010904/DTD/svg10.dtd">
<svg version="1.0" xmlns="http://www.w3.org/2000/svg"
 width="105.000000pt" height="71.000000pt" viewBox="0 0 105.000000 71.000000"
 preserveAspectRatio="xMidYMid meet">
<metadata>
Created by potrace 1.16, written by Peter Selinger 2001-2019
</metadata>
<g transform="translate(0.000000,71.000000) scale(0.100000,-0.100000)"
fill="#000000" stroke="none">
<path d="M6 700 c-1 -3 -2 -160 -2 -349 1 -297 3 -345 16 -348 9 -3 11 -1 5 4
-12 9 -15 660 -3 678 4 7 185 10 516 10 281 0 508 2 505 5 -6 7 -1034 7 -1037
0z"/>
<path d="M303 600 c-13 -5 -23 -14 -23 -19 0 -5 -8 -12 -17 -15 -10 -4 -29
-16 -43 -27 -16 -14 -19 -19 -7 -15 10 3 17 0 17 -7 1 -7 9 -1 20 11 11 13 25
25 32 26 7 1 19 5 26 10 16 10 38 -8 60 -48 14 -26 17 -61 17 -209 0 -173 1
-178 20 -173 11 3 23 6 28 6 4 0 7 25 7 55 0 30 -3 54 -7 54 -22 -4 -25 3 -7
17 10 8 14 13 7 10 -6 -4 -14 -2 -17 3 -3 5 1 12 10 15 12 4 15 20 13 66 -1
34 -6 63 -11 66 -4 3 -6 10 -3 15 4 5 1 9 -4 9 -6 0 -11 5 -11 11 0 5 5 7 10
4 6 -3 10 -1 10 4 0 6 -7 11 -16 11 -12 0 -15 6 -10 24 3 14 1 28 -4 31 -6 4
-8 11 -5 16 4 5 1 9 -4 9 -6 0 -11 6 -11 13 0 11 -43 40 -53 36 -1 0 -12 -4
-24 -9z"/>
<path d="M180 495 c0 -5 -12 -23 -26 -38 -14 -15 -23 -34 -20 -42 2 -7 1 -15
-5 -17 -5 -2 -11 -13 -14 -26 -2 -13 0 -20 6 -17 5 4 7 11 4 16 -4 5 -2 9 2 9
5 0 20 21 33 48 14 26 33 55 43 64 18 16 18 17 -2 15 -12 -1 -21 -6 -21 -12z"/>
<path d="M872 454 c-8 -8 -8 -14 -2 -14 6 0 10 -41 10 -110 0 -71 4 -110 11
-110 5 0 7 -4 4 -10 -3 -5 -1 -10 4 -10 6 0 11 4 11 10 0 5 7 7 15 4 11 -5 13
-2 8 12 -5 13 -3 15 8 9 12 -8 12 -6 0 8 -7 9 -18 14 -25 10 -6 -3 -3 3 7 14
16 18 16 21 2 33 -13 11 -14 15 -1 29 8 9 16 36 18 61 3 25 6 52 9 60 5 19
-61 23 -79 4z"/>
<path d="M724 452 c5 -8 2 -10 -8 -6 -19 7 -18 14 -19 -109 -2 -105 6 -127 38
-104 15 11 17 27 17 94 -2 88 -3 85 66 99 29 6 21 12 -24 19 -26 3 -53 9 -62
13 -10 3 -13 1 -8 -6z"/>
<path d="M578 436 c-23 -17 -23 -32 2 -63 14 -18 20 -41 20 -75 0 -64 -14 -92
-39 -78 -14 7 -20 6 -25 -5 -3 -8 -1 -15 5 -15 6 0 7 -4 4 -10 -3 -5 0 -10 9
-10 8 0 16 -5 18 -12 2 -6 12 -9 21 -5 10 4 21 6 25 6 4 0 10 15 14 33 3 18
11 50 16 71 12 45 -8 130 -36 159 -14 14 -20 15 -34 4z"/>
<path d="M485 341 c-3 -5 -2 -12 3 -15 5 -3 9 1 9 9 0 17 -3 19 -12 6z"/>
<path d="M271 310 c6 -17 16 -27 22 -23 5 3 7 2 4 -4 -3 -5 -7 -30 -8 -56 -2
-26 -6 -47 -11 -47 -4 0 -8 -6 -8 -14 0 -16 -34 -31 -50 -21 -5 3 -10 1 -10
-4 0 -6 5 -11 10 -11 6 0 10 -7 10 -16 0 -11 5 -14 16 -10 9 3 19 6 22 6 4 0
20 16 35 36 28 34 47 94 30 94 -4 0 -8 13 -9 28 -1 30 -31 72 -51 72 -9 0 -9
-7 -2 -30z"/>
<path d="M925 310 c3 -5 8 -10 11 -10 2 0 4 5 4 10 0 6 -5 10 -11 10 -5 0 -7
-4 -4 -10z"/>
<path d="M100 285 c0 -8 4 -15 10 -15 5 0 7 7 4 15 -4 8 -8 15 -10 15 -2 0 -4
-7 -4 -15z"/>
<path d="M116 237 c3 -10 9 -15 12 -12 3 3 0 11 -7 18 -10 9 -11 8 -5 -6z"/>
<path d="M136 188 c3 -4 9 -8 15 -8 5 0 9 4 9 8 0 5 -7 9 -15 9 -8 0 -12 -4
-9 -9z"/>
</g>
</svg>
